solid OpenSCAD_Model
  facet normal 0 0 -1
    outer loop
      vertex -4 0 0
      vertex -6.99023 0.361328 0
      vertex -6.94097 0.682193 0
    endloop
  endfacet
  facet normal 0 0 -1
    outer loop
      vertex -2 -6.70801 0
      vertex 2 -6.70801 0
      vertex 2 -12.1104 0
    endloop
  endfacet
  facet normal 0 0 -1
    outer loop
      vertex -2 -12.1104 0
      vertex 2 -12.1104 0
      vertex 1.95605 -12.5264 0
    endloop
  endfacet
  facet normal 0 0 -1
    outer loop
      vertex -2 -12.1104 0
      vertex 1.95605 -12.5264 0
      vertex 1.82715 -12.9238 0
    endloop
  endfacet
  facet normal 0 0 -1
    outer loop
      vertex -2 -12.1104 0
      vertex 1.82715 -12.9238 0
      vertex 1.61816 -13.2861 0
    endloop
  endfacet
  facet normal 0 0 -1
    outer loop
      vertex -2 -12.1104 0
      vertex 1.61816 -13.2861 0
      vertex 1.33789 -13.5967 0
    endloop
  endfacet
  facet normal 0 0 -1
    outer loop
      vertex -2 -12.1104 0
      vertex 1.33789 -13.5967 0
      vertex 1 -13.8428 0
    endloop
  endfacet
  facet normal 0 0 -1
    outer loop
      vertex -2 -12.1104 0
      vertex 1 -13.8428 0
      vertex 0.618164 -14.0127 0
    endloop
  endfacet
  facet normal 0 0 -1
    outer loop
      vertex -2 -12.1104 0
      vertex 0.618164 -14.0127 0
      vertex 0.208984 -14.0996 0
    endloop
  endfacet
  facet normal 0 0 -1
    outer loop
      vertex -2 -12.1104 0
      vertex 0.208984 -14.0996 0
      vertex -0.208984 -14.0996 0
    endloop
  endfacet
  facet normal 0 0 -1
    outer loop
      vertex -2 -12.1104 0
      vertex -0.208984 -14.0996 0
      vertex -0.618164 -14.0127 0
    endloop
  endfacet
  facet normal 0 0 -1
    outer loop
      vertex -2 -12.1104 0
      vertex -0.618164 -14.0127 0
      vertex -1 -13.8428 0
    endloop
  endfacet
  facet normal 0 0 -1
    outer loop
      vertex -2 -12.1104 0
      vertex -1 -13.8428 0
      vertex -1.33789 -13.5967 0
    endloop
  endfacet
  facet normal 0 0 -1
    outer loop
      vertex -2 -12.1104 0
      vertex -1.33789 -13.5967 0
      vertex -1.61816 -13.2861 0
    endloop
  endfacet
  facet normal 0 0 -1
    outer loop
      vertex -2 -12.1104 0
      vertex -1.61816 -13.2861 0
      vertex -1.82715 -12.9238 0
    endloop
  endfacet
  facet normal 0 0 -1
    outer loop
      vertex -2 -12.1104 0
      vertex -1.82715 -12.9238 0
      vertex -1.95605 -12.5264 0
    endloop
  endfacet
  facet normal 0 0 -1
    outer loop
      vertex 2 -12.1104 0
      vertex -2 -12.1104 0
      vertex -2 -6.70801 0
    endloop
  endfacet
  facet normal 0 0 -1
    outer loop
      vertex 2 -6.70801 0
      vertex -2 -6.70801 0
      vertex 2 -3.4641 0
    endloop
  endfacet
  facet normal 0 0 -1
    outer loop
      vertex -2 -6.70801 0
      vertex -2 -3.4641 0
      vertex 2 -3.4641 0
    endloop
  endfacet
  facet normal 0 0 -1
    outer loop
      vertex -2.76074 -6.394 0
      vertex -2 -3.4641 0
      vertex -2 -6.70801 0
    endloop
  endfacet
  facet normal 0 0 -1
    outer loop
      vertex -3.03869 -6.27927 0
      vertex -2.76074 -6.394 0
      vertex -2.77246 -6.42773 0
    endloop
  endfacet
  facet normal 0 0 -1
    outer loop
      vertex -2.76074 -6.394 0
      vertex -3.03869 -6.27927 0
      vertex -2 -3.4641 0
    endloop
  endfacet
  facet normal 0 0 -1
    outer loop
      vertex -3.31543 -6.16504 0
      vertex -2 -3.4641 0
      vertex -3.03869 -6.27927 0
    endloop
  endfacet
  facet normal 0 0 -1
    outer loop
      vertex -3.64943 -5.93868 0
      vertex -2 -3.4641 0
      vertex -3.31543 -6.16504 0
    endloop
  endfacet
  facet normal 0 0 -1
    outer loop
      vertex -4.00879 -5.73828 0
      vertex -2 -3.4641 0
      vertex -3.64943 -5.93868 0
    endloop
  endfacet
  facet normal 0 0 -1
    outer loop
      vertex -2 -3.4641 0
      vertex -4.00879 -5.73828 0
      vertex -4.24344 -5.53612 0
    endloop
  endfacet
  facet normal 0 0 -1
    outer loop
      vertex 4.00879 -5.73828 0
      vertex 2 -3.4641 0
      vertex 4.24344 -5.53612 0
    endloop
  endfacet
  facet normal 0 0 -1
    outer loop
      vertex 2 -3.4641 0
      vertex 3.64943 -5.93868 0
      vertex 3.31543 -6.16504 0
    endloop
  endfacet
  facet normal 0 0 -1
    outer loop
      vertex 2 -3.4641 0
      vertex 3.31543 -6.16504 0
      vertex 3.03869 -6.27927 0
    endloop
  endfacet
  facet normal 0 0 -1
    outer loop
      vertex 2.76074 -6.394 0
      vertex 3.03869 -6.27927 0
      vertex 2.77246 -6.42773 0
    endloop
  endfacet
  facet normal 0 0 -1
    outer loop
      vertex 2 -3.4641 0
      vertex 3.03869 -6.27927 0
      vertex 2.76074 -6.394 0
    endloop
  endfacet
  facet normal 0 0 -1
    outer loop
      vertex 2 -3.4641 0
      vertex 2.76074 -6.394 0
      vertex 2 -6.70801 0
    endloop
  endfacet
  facet normal 0 0 -1
    outer loop
      vertex 4.24344 -5.53612 0
      vertex 2 -3.4641 0
      vertex 4 0 0
    endloop
  endfacet
  facet normal 0 0 -1
    outer loop
      vertex 4 0 0
      vertex 6.98828 -0.411133 0
      vertex 6.9368 -0.727738 0
    endloop
  endfacet
  facet normal 0 0 -1
    outer loop
      vertex 6.98828 -0.411133 0
      vertex 4 0 0
      vertex 6.97144 -0.0218032 0
    endloop
  endfacet
  facet normal 0 0 -1
    outer loop
      vertex 6.97144 -0.0218032 0
      vertex 4 0 0
      vertex 6.94097 0.682193 0
    endloop
  endfacet
  facet normal 0 0 -1
    outer loop
      vertex 4 0 0
      vertex 6.9368 -0.727738 0
      vertex 6.9209 -1.05176 0
    endloop
  endfacet
  facet normal -0 0 -1
    outer loop
      vertex 6.94097 0.682193 0
      vertex 4 0 0
      vertex 6.92676 1.01074 0
    endloop
  endfacet
  facet normal 0 0 -1
    outer loop
      vertex 4 0 0
      vertex 6.9209 -1.05176 0
      vertex 6.82128 -1.43813 0
    endloop
  endfacet
  facet normal -0 0 -1
    outer loop
      vertex 6.92676 1.01074 0
      vertex 4 0 0
      vertex 6.83403 1.37879 0
    endloop
  endfacet
  facet normal 0 0 -1
    outer loop
      vertex 4 0 0
      vertex 6.82128 -1.43813 0
      vertex 6.75977 -1.81641 0
    endloop
  endfacet
  facet normal -0 0 -1
    outer loop
      vertex 6.83403 1.37879 0
      vertex 4 0 0
      vertex 6.77539 1.76074 0
    endloop
  endfacet
  facet normal 0 0 -1
    outer loop
      vertex 4 0 0
      vertex 6.75977 -1.81641 0
      vertex 6.64838 -2.10872 0
    endloop
  endfacet
  facet normal -0 0 -1
    outer loop
      vertex 6.77539 1.76074 0
      vertex 4 0 0
      vertex 6.65864 2.07493 0
    endloop
  endfacet
  facet normal 0 0 -1
    outer loop
      vertex 6.39234 -2.78063 0
      vertex 6.64838 -2.10872 0
      vertex 6.56738 -2.42285 0
    endloop
  endfacet
  facet normal 0 -0 -1
    outer loop
      vertex 6.41603 2.7278 0
      vertex 6.65864 2.07493 0
      vertex 4 0 0
    endloop
  endfacet
  facet normal -0 0 -1
    outer loop
      vertex 6.64838 -2.10872 0
      vertex 6.39234 -2.78063 0
      vertex 4 0 0
    endloop
  endfacet
  facet normal 0 0 -1
    outer loop
      vertex 6.65864 2.07493 0
      vertex 6.41603 2.7278 0
      vertex 6.5791 2.39062 0
    endloop
  endfacet
  facet normal 0 0 -1
    outer loop
      vertex 6.08309 -3.41273 0
      vertex 6.39234 -2.78063 0
      vertex 6.25293 -3.14648 0
    endloop
  endfacet
  facet normal 0 -0 -1
    outer loop
      vertex 6.10299 3.37509 0
      vertex 6.41603 2.7278 0
      vertex 4 0 0
    endloop
  endfacet
  facet normal -0 0 -1
    outer loop
      vertex 6.39234 -2.78063 0
      vertex 6.08309 -3.41273 0
      vertex 4 0 0
    endloop
  endfacet
  facet normal 0 0 -1
    outer loop
      vertex 6.41603 2.7278 0
      vertex 6.10299 3.37509 0
      vertex 6.28223 3.08789 0
    endloop
  endfacet
  facet normal 0 0 -1
    outer loop
      vertex 5.70363 -4.00757 0
      vertex 6.08309 -3.41273 0
      vertex 5.94531 -3.69434 0
    endloop
  endfacet
  facet normal 0 0 -1
    outer loop
      vertex 2 3.4641 0
      vertex 6.10299 3.37509 0
      vertex 4 0 0
    endloop
  endfacet
  facet normal -0 0 -1
    outer loop
      vertex 6.08309 -3.41273 0
      vertex 5.70363 -4.00757 0
      vertex 4 0 0
    endloop
  endfacet
  facet normal 0 -0 -1
    outer loop
      vertex 5.73491 3.96488 0
      vertex 6.10299 3.37509 0
      vertex 2 3.4641 0
    endloop
  endfacet
  facet normal 0 0 -1
    outer loop
      vertex 5.26932 -4.57045 0
      vertex 5.70363 -4.00757 0
      vertex 5.4873 -4.34668 0
    endloop
  endfacet
  facet normal 0 0 -1
    outer loop
      vertex 6.10299 3.37509 0
      vertex 5.73491 3.96488 0
      vertex 5.95898 3.67285 0
    endloop
  endfacet
  facet normal -0 0 -1
    outer loop
      vertex 5.70363 -4.00757 0
      vertex 5.26932 -4.57045 0
      vertex 4 0 0
    endloop
  endfacet
  facet normal 0 -0 -1
    outer loop
      vertex 5.29501 4.53819 0
      vertex 5.73491 3.96488 0
      vertex 2 3.4641 0
    endloop
  endfacet
  facet normal 0 0 -1
    outer loop
      vertex 4.77352 -5.07942 0
      vertex 5.26932 -4.57045 0
      vertex 5.08105 -4.81445 0
    endloop
  endfacet
  facet normal 0 0 -1
    outer loop
      vertex 5.73491 3.96488 0
      vertex 5.29501 4.53819 0
      vertex 5.5332 4.28809 0
    endloop
  endfacet
  facet normal -0 0 -1
    outer loop
      vertex 5.26932 -4.57045 0
      vertex 4.77352 -5.07942 0
      vertex 4 0 0
    endloop
  endfacet
  facet normal -0 0 -1
    outer loop
      vertex 5.29501 4.53819 0
      vertex 2 3.4641 0
      vertex 5.09277 4.80176 0
    endloop
  endfacet
  facet normal 0 0 -1
    outer loop
      vertex 4.24344 -5.53612 0
      vertex 4.77352 -5.07942 0
      vertex 4.49414 -5.36621 0
    endloop
  endfacet
  facet normal -0 0 -1
    outer loop
      vertex 5.09277 4.80176 0
      vertex 2 3.4641 0
      vertex 4.81486 5.04235 0
    endloop
  endfacet
  facet normal -0 0 -1
    outer loop
      vertex 4.77352 -5.07942 0
      vertex 4.24344 -5.53612 0
      vertex 4 0 0
    endloop
  endfacet
  facet normal -0 0 -1
    outer loop
      vertex 4.81486 5.04235 0
      vertex 2 3.4641 0
      vertex 4.55664 5.31348 0
    endloop
  endfacet
  facet normal 0 0 -1
    outer loop
      vertex 2 -3.4641 0
      vertex 4.00879 -5.73828 0
      vertex 3.64943 -5.93868 0
    endloop
  endfacet
  facet normal -0 0 -1
    outer loop
      vertex 4.55664 5.31348 0
      vertex 2 3.4641 0
      vertex 4.27557 5.50921 0
    endloop
  endfacet
  facet normal -0 0 -1
    outer loop
      vertex 4.27557 5.50921 0
      vertex 2 3.4641 0
      vertex 4.0166 5.7334 0
    endloop
  endfacet
  facet normal -0 0 -1
    outer loop
      vertex 4.0166 5.7334 0
      vertex 2 3.4641 0
      vertex 3.70035 5.90979 0
    endloop
  endfacet
  facet normal -0 0 -1
    outer loop
      vertex 3.70035 5.90979 0
      vertex 2 3.4641 0
      vertex 3.39551 6.12207 0
    endloop
  endfacet
  facet normal -0 0 -1
    outer loop
      vertex 3.39551 6.12207 0
      vertex 2 3.4641 0
      vertex 3.06884 6.262 0
    endloop
  endfacet
  facet normal -0 0 -1
    outer loop
      vertex 3.06884 6.262 0
      vertex 2 3.4641 0
      vertex 2.77344 6.42676 0
    endloop
  endfacet
  facet normal -0 0 -1
    outer loop
      vertex 2.77344 6.42676 0
      vertex 2 3.4641 0
      vertex 2.4338 6.53402 0
    endloop
  endfacet
  facet normal -0 0 -1
    outer loop
      vertex 2.4338 6.53402 0
      vertex 2 3.4641 0
      vertex 2.09375 6.67969 0
    endloop
  endfacet
  facet normal 0 0 -1
    outer loop
      vertex 2 3.4641 0
      vertex 1.74825 6.75054 0
      vertex 2.09375 6.67969 0
    endloop
  endfacet
  facet normal 0 0 -1
    outer loop
      vertex 1.05879 6.89193 0
      vertex 1.74825 6.75054 0
      vertex 2 3.4641 0
    endloop
  endfacet
  facet normal 0 0 -1
    outer loop
      vertex 1.74825 6.75054 0
      vertex 1.05879 6.89193 0
      vertex 1.41602 6.85547 0
    endloop
  endfacet
  facet normal 0 0 -1
    outer loop
      vertex 0.354004 6.96387 0
      vertex 1.05879 6.89193 0
      vertex 2 3.4641 0
    endloop
  endfacet
  facet normal 0 0 -1
    outer loop
      vertex 1.05879 6.89193 0
      vertex 0.354004 6.96387 0
      vertex 0.708008 6.96387 0
    endloop
  endfacet
  facet normal 0 0 -1
    outer loop
      vertex -0.354004 6.96387 0
      vertex 0.354004 6.96387 0
      vertex 2 3.4641 0
    endloop
  endfacet
  facet normal 0 0 -1
    outer loop
      vertex 0.354004 6.96387 0
      vertex -0.354004 6.96387 0
      vertex 0 7 0
    endloop
  endfacet
  facet normal 0 0 -1
    outer loop
      vertex -2 3.4641 0
      vertex -0.354004 6.96387 0
      vertex 2 3.4641 0
    endloop
  endfacet
  facet normal 0 -0 -1
    outer loop
      vertex -1.05879 6.89193 0
      vertex -0.354004 6.96387 0
      vertex -2 3.4641 0
    endloop
  endfacet
  facet normal -0 0 -1
    outer loop
      vertex -0.354004 6.96387 0
      vertex -1.05879 6.89193 0
      vertex -0.708008 6.96387 0
    endloop
  endfacet
  facet normal 0 -0 -1
    outer loop
      vertex -1.74825 6.75054 0
      vertex -1.05879 6.89193 0
      vertex -2 3.4641 0
    endloop
  endfacet
  facet normal 0 0 -1
    outer loop
      vertex -1.05879 6.89193 0
      vertex -1.74825 6.75054 0
      vertex -1.41602 6.85547 0
    endloop
  endfacet
  facet normal 0 0 -1
    outer loop
      vertex -2 3.4641 0
      vertex -2.09375 6.67969 0
      vertex -1.74825 6.75054 0
    endloop
  endfacet
  facet normal 0 0 -1
    outer loop
      vertex -2 3.4641 0
      vertex -2.4338 6.53402 0
      vertex -2.09375 6.67969 0
    endloop
  endfacet
  facet normal 0 0 -1
    outer loop
      vertex -2 3.4641 0
      vertex -2.77344 6.42676 0
      vertex -2.4338 6.53402 0
    endloop
  endfacet
  facet normal 0 0 -1
    outer loop
      vertex -2 3.4641 0
      vertex -3.06884 6.262 0
      vertex -2.77344 6.42676 0
    endloop
  endfacet
  facet normal 0 0 -1
    outer loop
      vertex -2 3.4641 0
      vertex -3.39551 6.12207 0
      vertex -3.06884 6.262 0
    endloop
  endfacet
  facet normal 0 0 -1
    outer loop
      vertex -2 3.4641 0
      vertex -3.70035 5.90979 0
      vertex -3.39551 6.12207 0
    endloop
  endfacet
  facet normal 0 0 -1
    outer loop
      vertex -6.10299 3.37509 0
      vertex -2 3.4641 0
      vertex -4 0 0
    endloop
  endfacet
  facet normal 0 -0 -1
    outer loop
      vertex -4.0166 5.7334 0
      vertex -2 3.4641 0
      vertex -4.27557 5.50921 0
    endloop
  endfacet
  facet normal 0 0 -1
    outer loop
      vertex -4.49414 -5.36621 0
      vertex -2 -3.4641 0
      vertex -4.24344 -5.53612 0
    endloop
  endfacet
  facet normal 0 0 -1
    outer loop
      vertex -5.26932 -4.57045 0
      vertex -2 -3.4641 0
      vertex -4.77352 -5.07942 0
    endloop
  endfacet
  facet normal 0 0 -1
    outer loop
      vertex -2 3.4641 0
      vertex -4.0166 5.7334 0
      vertex -3.70035 5.90979 0
    endloop
  endfacet
  facet normal 0 0 -1
    outer loop
      vertex -2 -3.4641 0
      vertex -4.49414 -5.36621 0
      vertex -4.77352 -5.07942 0
    endloop
  endfacet
  facet normal 0 0 -1
    outer loop
      vertex -5.70363 -4.00757 0
      vertex -2 -3.4641 0
      vertex -5.26932 -4.57045 0
    endloop
  endfacet
  facet normal 0 -0 -1
    outer loop
      vertex -4.55664 5.31348 0
      vertex -2 3.4641 0
      vertex -4.81486 5.04235 0
    endloop
  endfacet
  facet normal 0 0 -1
    outer loop
      vertex -2 3.4641 0
      vertex -4.55664 5.31348 0
      vertex -4.27557 5.50921 0
    endloop
  endfacet
  facet normal 0 0 -1
    outer loop
      vertex -5.26932 -4.57045 0
      vertex -4.77352 -5.07942 0
      vertex -5.08105 -4.81445 0
    endloop
  endfacet
  facet normal 0 0 -1
    outer loop
      vertex -6.08309 -3.41273 0
      vertex -2 -3.4641 0
      vertex -5.70363 -4.00757 0
    endloop
  endfacet
  facet normal 0 0 -1
    outer loop
      vertex -2 3.4641 0
      vertex -5.29501 4.53819 0
      vertex -4.81486 5.04235 0
    endloop
  endfacet
  facet normal 0 0 -1
    outer loop
      vertex -4.81486 5.04235 0
      vertex -5.29501 4.53819 0
      vertex -5.09277 4.80176 0
    endloop
  endfacet
  facet normal 0 0 -1
    outer loop
      vertex -5.70363 -4.00757 0
      vertex -5.26932 -4.57045 0
      vertex -5.4873 -4.34668 0
    endloop
  endfacet
  facet normal 0 0 -1
    outer loop
      vertex -2 -3.4641 0
      vertex -6.08309 -3.41273 0
      vertex -4 0 0
    endloop
  endfacet
  facet normal 0 0 -1
    outer loop
      vertex -2 3.4641 0
      vertex -5.73491 3.96488 0
      vertex -5.29501 4.53819 0
    endloop
  endfacet
  facet normal 0 0 -1
    outer loop
      vertex -5.29501 4.53819 0
      vertex -5.73491 3.96488 0
      vertex -5.5332 4.28809 0
    endloop
  endfacet
  facet normal 0 0 -1
    outer loop
      vertex -6.08309 -3.41273 0
      vertex -5.70363 -4.00757 0
      vertex -5.94531 -3.69434 0
    endloop
  endfacet
  facet normal 0 0 -1
    outer loop
      vertex -6.39234 -2.78063 0
      vertex -4 0 0
      vertex -6.08309 -3.41273 0
    endloop
  endfacet
  facet normal -0 0 -1
    outer loop
      vertex -2 3.4641 0
      vertex -6.10299 3.37509 0
      vertex -5.73491 3.96488 0
    endloop
  endfacet
  facet normal 0 0 -1
    outer loop
      vertex -5.73491 3.96488 0
      vertex -6.10299 3.37509 0
      vertex -5.95898 3.67285 0
    endloop
  endfacet
  facet normal 0 0 -1
    outer loop
      vertex -6.39234 -2.78063 0
      vertex -6.08309 -3.41273 0
      vertex -6.25293 -3.14648 0
    endloop
  endfacet
  facet normal 0 0 -1
    outer loop
      vertex -6.64838 -2.10872 0
      vertex -4 0 0
      vertex -6.39234 -2.78063 0
    endloop
  endfacet
  facet normal 0 0 -1
    outer loop
      vertex -4 0 0
      vertex -6.41603 2.7278 0
      vertex -6.10299 3.37509 0
    endloop
  endfacet
  facet normal 0 0 -1
    outer loop
      vertex -6.10299 3.37509 0
      vertex -6.41603 2.7278 0
      vertex -6.28223 3.08789 0
    endloop
  endfacet
  facet normal 0 0 -1
    outer loop
      vertex -6.64838 -2.10872 0
      vertex -6.39234 -2.78063 0
      vertex -6.56738 -2.42285 0
    endloop
  endfacet
  facet normal 0 0 -1
    outer loop
      vertex -6.82128 -1.43813 0
      vertex -4 0 0
      vertex -6.64838 -2.10872 0
    endloop
  endfacet
  facet normal 0 0 -1
    outer loop
      vertex -4 0 0
      vertex -6.65864 2.07493 0
      vertex -6.41603 2.7278 0
    endloop
  endfacet
  facet normal 0 0 -1
    outer loop
      vertex -6.41603 2.7278 0
      vertex -6.65864 2.07493 0
      vertex -6.5791 2.39062 0
    endloop
  endfacet
  facet normal 0 0 -1
    outer loop
      vertex -6.82128 -1.43813 0
      vertex -6.64838 -2.10872 0
      vertex -6.75977 -1.81641 0
    endloop
  endfacet
  facet normal 0 0 -1
    outer loop
      vertex -6.9209 -1.05176 0
      vertex -4 0 0
      vertex -6.82128 -1.43813 0
    endloop
  endfacet
  facet normal 0 0 -1
    outer loop
      vertex -4 0 0
      vertex -6.83403 1.37879 0
      vertex -6.65864 2.07493 0
    endloop
  endfacet
  facet normal 0 0 -1
    outer loop
      vertex -6.65864 2.07493 0
      vertex -6.83403 1.37879 0
      vertex -6.77539 1.76074 0
    endloop
  endfacet
  facet normal 0 0 -1
    outer loop
      vertex -4 0 0
      vertex -6.9209 -1.05176 0
      vertex -6.9368 -0.727738 0
    endloop
  endfacet
  facet normal 0 0 -1
    outer loop
      vertex -6.98828 -0.411133 0
      vertex -4 0 0
      vertex -6.9368 -0.727738 0
    endloop
  endfacet
  facet normal 0 0 -1
    outer loop
      vertex -6.99023 0.361328 0
      vertex -4 0 0
      vertex -6.97144 -0.0218032 0
    endloop
  endfacet
  facet normal 0 0 -1
    outer loop
      vertex -4 0 0
      vertex -6.92676 1.01074 0
      vertex -6.83403 1.37879 0
    endloop
  endfacet
  facet normal 0 -0 -1
    outer loop
      vertex -6.92676 1.01074 0
      vertex -4 0 0
      vertex -6.94097 0.682193 0
    endloop
  endfacet
  facet normal 0 0 -1
    outer loop
      vertex -4 0 0
      vertex -6.98828 -0.411133 0
      vertex -6.97144 -0.0218032 0
    endloop
  endfacet
  facet normal -0 0 -1
    outer loop
      vertex 6.99023 0.361328 0
      vertex 6.97144 -0.0218032 0
      vertex 6.94097 0.682193 0
    endloop
  endfacet
  facet normal 0 0 1
    outer loop
      vertex 2 -6.70801 3
      vertex 2.63477 -6.03125 3
      vertex 2.3877 -5.66406 3
    endloop
  endfacet
  facet normal 0 0 1
    outer loop
      vertex 2 -6.70801 3
      vertex 2.3877 -5.66406 3
      vertex 2.04199 -5.33984 3
    endloop
  endfacet
  facet normal 0 0 1
    outer loop
      vertex 2.63477 -6.03125 3
      vertex 2 -6.70801 3
      vertex 2.76074 -6.394 3
    endloop
  endfacet
  facet normal 0 0 1
    outer loop
      vertex -2 -12.1104 3
      vertex 2 -12.1104 3
      vertex 2 -6.70801 3
    endloop
  endfacet
  facet normal 0 0 1
    outer loop
      vertex 2 -12.1104 3
      vertex -2 -12.1104 3
      vertex 1.95605 -12.5264 3
    endloop
  endfacet
  facet normal 0 0 1
    outer loop
      vertex 1.95605 -12.5264 3
      vertex -2 -12.1104 3
      vertex 1.82715 -12.9238 3
    endloop
  endfacet
  facet normal 0 0 1
    outer loop
      vertex 1.61035 -5.07227 3
      vertex 2 -6.70801 3
      vertex 2.04199 -5.33984 3
    endloop
  endfacet
  facet normal 0 0 1
    outer loop
      vertex 1.1123 -4.87305 3
      vertex 2 -6.70801 3
      vertex 1.61035 -5.07227 3
    endloop
  endfacet
  facet normal 0 0 1
    outer loop
      vertex -2 -12.1104 3
      vertex 2 -6.70801 3
      vertex -2 -6.70801 3
    endloop
  endfacet
  facet normal 0 0 1
    outer loop
      vertex 0.568359 -4.75 3
      vertex 2 -6.70801 3
      vertex 1.1123 -4.87305 3
    endloop
  endfacet
  facet normal 0 0 1
    outer loop
      vertex 1.82715 -12.9238 3
      vertex -2 -12.1104 3
      vertex 1.61816 -13.2861 3
    endloop
  endfacet
  facet normal 0 0 1
    outer loop
      vertex 1.61816 -13.2861 3
      vertex -2 -12.1104 3
      vertex 1.33789 -13.5967 3
    endloop
  endfacet
  facet normal 0 0 1
    outer loop
      vertex 0 -4.70801 3
      vertex 2 -6.70801 3
      vertex 0.568359 -4.75 3
    endloop
  endfacet
  facet normal 0 0 1
    outer loop
      vertex 1.33789 -13.5967 3
      vertex -2 -12.1104 3
      vertex 1 -13.8428 3
    endloop
  endfacet
  facet normal 0 0 1
    outer loop
      vertex 2 -6.70801 3
      vertex 0 -4.70801 3
      vertex -2 -6.70801 3
    endloop
  endfacet
  facet normal 0 0 1
    outer loop
      vertex 1 -13.8428 3
      vertex -2 -12.1104 3
      vertex 0.618164 -14.0127 3
    endloop
  endfacet
  facet normal 0 0 1
    outer loop
      vertex -2 -6.70801 3
      vertex 0 -4.70801 3
      vertex -0.568359 -4.75 3
    endloop
  endfacet
  facet normal 0 0 1
    outer loop
      vertex 0.618164 -14.0127 3
      vertex -2 -12.1104 3
      vertex 0.208984 -14.0996 3
    endloop
  endfacet
  facet normal 0 0 1
    outer loop
      vertex -0.208984 -14.0996 3
      vertex -2 -12.1104 3
      vertex -0.618164 -14.0127 3
    endloop
  endfacet
  facet normal 0 0 1
    outer loop
      vertex -2 -6.70801 3
      vertex -0.568359 -4.75 3
      vertex -1.1123 -4.87305 3
    endloop
  endfacet
  facet normal 0 0 1
    outer loop
      vertex 0.208984 -14.0996 3
      vertex -2 -12.1104 3
      vertex -0.208984 -14.0996 3
    endloop
  endfacet
  facet normal 0 0 1
    outer loop
      vertex -2 -6.70801 3
      vertex -1.1123 -4.87305 3
      vertex -1.61035 -5.07227 3
    endloop
  endfacet
  facet normal 0 0 1
    outer loop
      vertex -0.618164 -14.0127 3
      vertex -2 -12.1104 3
      vertex -1 -13.8428 3
    endloop
  endfacet
  facet normal 0 0 1
    outer loop
      vertex -1 -13.8428 3
      vertex -2 -12.1104 3
      vertex -1.33789 -13.5967 3
    endloop
  endfacet
  facet normal 0 0 1
    outer loop
      vertex -1.61816 -13.2861 3
      vertex -2 -12.1104 3
      vertex -1.82715 -12.9238 3
    endloop
  endfacet
  facet normal 0 0 1
    outer loop
      vertex -1.33789 -13.5967 3
      vertex -2 -12.1104 3
      vertex -1.61816 -13.2861 3
    endloop
  endfacet
  facet normal -0 0 1
    outer loop
      vertex -2.04199 -5.33984 3
      vertex -2 -6.70801 3
      vertex -1.61035 -5.07227 3
    endloop
  endfacet
  facet normal -0 0 1
    outer loop
      vertex -2.3877 -5.66406 3
      vertex -2 -6.70801 3
      vertex -2.04199 -5.33984 3
    endloop
  endfacet
  facet normal -0 0 1
    outer loop
      vertex -2.63477 -6.03125 3
      vertex -2 -6.70801 3
      vertex -2.3877 -5.66406 3
    endloop
  endfacet
  facet normal 0 0 1
    outer loop
      vertex -2 -6.70801 3
      vertex -2.63477 -6.03125 3
      vertex -2.76074 -6.394 3
    endloop
  endfacet
  facet normal 0 0 1
    outer loop
      vertex -1.82715 -12.9238 3
      vertex -2 -12.1104 3
      vertex -1.95605 -12.5264 3
    endloop
  endfacet
  facet normal 0 0 1
    outer loop
      vertex 3.06884 6.262 3
      vertex 2.77344 6.42676 3
      vertex 2.4338 6.53402 3
    endloop
  endfacet
  facet normal 0 0 1
    outer loop
      vertex 5.29501 4.53819 3
      vertex 5.09277 4.80176 3
      vertex 4.81486 5.04235 3
    endloop
  endfacet
  facet normal 0 0 1
    outer loop
      vertex -4.81486 5.04235 3
      vertex -5.09277 4.80176 3
      vertex -5.29501 4.53819 3
    endloop
  endfacet
  facet normal 0 -0 1
    outer loop
      vertex 3.31543 -6.16504 3
      vertex 3.64943 -5.93868 3
      vertex 3.03869 -6.27927 3
    endloop
  endfacet
  facet normal 0 -0 1
    outer loop
      vertex 4.49414 -5.36621 3
      vertex 4.77352 -5.07942 3
      vertex 4.24344 -5.53612 3
    endloop
  endfacet
  facet normal 0 -0 1
    outer loop
      vertex 6.25293 -3.14648 3
      vertex 6.39234 -2.78063 3
      vertex 6.08309 -3.41273 3
    endloop
  endfacet
  facet normal 0 -0 1
    outer loop
      vertex 5.4873 -4.34668 3
      vertex 5.70363 -4.00757 3
      vertex 5.26932 -4.57045 3
    endloop
  endfacet
  facet normal 0 -0 1
    outer loop
      vertex 6.75977 -1.81641 3
      vertex 6.82128 -1.43813 3
      vertex 6.64838 -2.10872 3
    endloop
  endfacet
  facet normal 0 0 1
    outer loop
      vertex 6.10299 3.37509 3
      vertex 5.95898 3.67285 3
      vertex 5.73491 3.96488 3
    endloop
  endfacet
  facet normal 0 0 1
    outer loop
      vertex 6.65864 2.07493 3
      vertex 6.5791 2.39062 3
      vertex 6.41603 2.7278 3
    endloop
  endfacet
  facet normal 0 0 1
    outer loop
      vertex 6.94097 0.682193 3
      vertex 6.92676 1.01074 3
      vertex 6.83403 1.37879 3
    endloop
  endfacet
  facet normal 0 0 1
    outer loop
      vertex 6.98828 -0.411133 3
      vertex 6.97144 -0.0218032 3
      vertex 6.9368 -0.727738 3
    endloop
  endfacet
  facet normal 0 0 1
    outer loop
      vertex -2.4338 6.53402 3
      vertex -2.77344 6.42676 3
      vertex -3.06884 6.262 3
    endloop
  endfacet
  facet normal 0 0 1
    outer loop
      vertex 4.27557 5.50921 3
      vertex 4.0166 5.7334 3
      vertex 3.70035 5.90979 3
    endloop
  endfacet
  facet normal 0 0 1
    outer loop
      vertex 0.354004 6.96387 3
      vertex 0 7 3
      vertex -0.354004 6.96387 3
    endloop
  endfacet
  facet normal 0 0 1
    outer loop
      vertex 1.74825 6.75054 3
      vertex 1.41602 6.85547 3
      vertex 1.05879 6.89193 3
    endloop
  endfacet
  facet normal 0 0 1
    outer loop
      vertex -1.05879 6.89193 3
      vertex -1.41602 6.85547 3
      vertex -1.74825 6.75054 3
    endloop
  endfacet
  facet normal 0 0 1
    outer loop
      vertex -3.70035 5.90979 3
      vertex -4.0166 5.7334 3
      vertex -4.27557 5.50921 3
    endloop
  endfacet
  facet normal -0 -0 1
    outer loop
      vertex -6.75977 -1.81641 3
      vertex -6.64838 -2.10872 3
      vertex -6.82128 -1.43813 3
    endloop
  endfacet
  facet normal -0 -0 1
    outer loop
      vertex -4.49414 -5.36621 3
      vertex -4.24344 -5.53612 3
      vertex -4.77352 -5.07942 3
    endloop
  endfacet
  facet normal 0 0 1
    outer loop
      vertex -6.41603 2.7278 3
      vertex -6.5791 2.39062 3
      vertex -6.65864 2.07493 3
    endloop
  endfacet
  facet normal 0 0 1
    outer loop
      vertex -5.73491 3.96488 3
      vertex -5.95898 3.67285 3
      vertex -6.10299 3.37509 3
    endloop
  endfacet
  facet normal 0 0 1
    outer loop
      vertex -6.83403 1.37879 3
      vertex -6.92676 1.01074 3
      vertex -6.94097 0.682193 3
    endloop
  endfacet
  facet normal 0 0 1
    outer loop
      vertex -6.9368 -0.727738 3
      vertex -6.97144 -0.0218032 3
      vertex -6.98828 -0.411133 3
    endloop
  endfacet
  facet normal -0 -0 1
    outer loop
      vertex -6.25293 -3.14648 3
      vertex -6.08309 -3.41273 3
      vertex -6.39234 -2.78063 3
    endloop
  endfacet
  facet normal -0 -0 1
    outer loop
      vertex -5.4873 -4.34668 3
      vertex -5.26932 -4.57045 3
      vertex -5.70363 -4.00757 3
    endloop
  endfacet
  facet normal -0 -0 1
    outer loop
      vertex -3.31543 -6.16504 3
      vertex -3.03869 -6.27927 3
      vertex -3.64943 -5.93868 3
    endloop
  endfacet
  facet normal 0.406572 -0.913619 0
    outer loop
      vertex 0.618164 -14.0127 0
      vertex 1 -13.8428 3
      vertex 0.618164 -14.0127 3
    endloop
  endfacet
  facet normal 0.406572 -0.913619 0
    outer loop
      vertex 1 -13.8428 3
      vertex 0.618164 -14.0127 0
      vertex 1 -13.8428 0
    endloop
  endfacet
  facet normal 0.588727 -0.808332 0
    outer loop
      vertex 1 -13.8428 0
      vertex 1.33789 -13.5967 3
      vertex 1 -13.8428 3
    endloop
  endfacet
  facet normal 0.588727 -0.808332 0
    outer loop
      vertex 1.33789 -13.5967 3
      vertex 1 -13.8428 0
      vertex 1.33789 -13.5967 0
    endloop
  endfacet
  facet normal 0.742365 -0.669996 0
    outer loop
      vertex 1.33789 -13.5967 3
      vertex 1.61816 -13.2861 0
      vertex 1.61816 -13.2861 3
    endloop
  endfacet
  facet normal 0.742365 -0.669996 0
    outer loop
      vertex 1.61816 -13.2861 0
      vertex 1.33789 -13.5967 3
      vertex 1.33789 -13.5967 0
    endloop
  endfacet
  facet normal 0.866224 -0.499655 0
    outer loop
      vertex 1.61816 -13.2861 3
      vertex 1.82715 -12.9238 0
      vertex 1.82715 -12.9238 3
    endloop
  endfacet
  facet normal 0.866224 -0.499655 0
    outer loop
      vertex 1.82715 -12.9238 0
      vertex 1.61816 -13.2861 3
      vertex 1.61816 -13.2861 0
    endloop
  endfacet
  facet normal 0.951223 -0.308505 0
    outer loop
      vertex 1.82715 -12.9238 3
      vertex 1.95605 -12.5264 0
      vertex 1.95605 -12.5264 3
    endloop
  endfacet
  facet normal 0.951223 -0.308505 0
    outer loop
      vertex 1.95605 -12.5264 0
      vertex 1.82715 -12.9238 3
      vertex 1.82715 -12.9238 0
    endloop
  endfacet
  facet normal 0.994467 -0.105049 0
    outer loop
      vertex 1.95605 -12.5264 3
      vertex 2 -12.1104 0
      vertex 2 -12.1104 3
    endloop
  endfacet
  facet normal 0.994467 -0.105049 0
    outer loop
      vertex 2 -12.1104 0
      vertex 1.95605 -12.5264 3
      vertex 1.95605 -12.5264 0
    endloop
  endfacet
  facet normal 1 -0 0
    outer loop
      vertex 2 -12.1104 3
      vertex 2 -6.70801 0
      vertex 2 -6.70801 3
    endloop
  endfacet
  facet normal 1 0 0
    outer loop
      vertex 2 -6.70801 0
      vertex 2 -12.1104 3
      vertex 2 -12.1104 0
    endloop
  endfacet
  facet normal 0.381543 -0.924351 0
    outer loop
      vertex 2 -6.70801 0
      vertex 2.76074 -6.394 3
      vertex 2 -6.70801 3
    endloop
  endfacet
  facet normal 0.381543 -0.924351 0
    outer loop
      vertex 2.76074 -6.394 3
      vertex 2 -6.70801 0
      vertex 2.76074 -6.394 0
    endloop
  endfacet
  facet normal 0.381543 -0.924351 0
    outer loop
      vertex 3.03869 -6.27927 0
      vertex 3.31543 -6.16504 3
      vertex 3.03869 -6.27927 3
    endloop
  endfacet
  facet normal 0.381543 -0.924351 0
    outer loop
      vertex 3.31543 -6.16504 3
      vertex 3.03869 -6.27927 0
      vertex 3.31543 -6.16504 0
    endloop
  endfacet
  facet normal 0.561015 -0.827805 0
    outer loop
      vertex 4.24344 -5.53612 0
      vertex 4.49414 -5.36621 3
      vertex 4.24344 -5.53612 3
    endloop
  endfacet
  facet normal 0.561015 -0.827805 0
    outer loop
      vertex 4.49414 -5.36621 3
      vertex 4.24344 -5.53612 0
      vertex 4.49414 -5.36621 0
    endloop
  endfacet
  facet normal 0.561015 -0.827806 0
    outer loop
      vertex 3.31543 -6.16504 0
      vertex 3.64943 -5.93868 3
      vertex 3.31543 -6.16504 3
    endloop
  endfacet
  facet normal 0.561015 -0.827806 0
    outer loop
      vertex 3.64943 -5.93868 3
      vertex 3.31543 -6.16504 0
      vertex 3.64943 -5.93868 0
    endloop
  endfacet
  facet normal 0.716309 -0.697783 0
    outer loop
      vertex 4.49414 -5.36621 3
      vertex 4.77352 -5.07942 0
      vertex 4.77352 -5.07942 3
    endloop
  endfacet
  facet normal 0.716309 -0.697783 0
    outer loop
      vertex 4.77352 -5.07942 0
      vertex 4.49414 -5.36621 3
      vertex 4.49414 -5.36621 0
    endloop
  endfacet
  facet normal 0.716308 -0.697784 0
    outer loop
      vertex 5.26932 -4.57045 3
      vertex 5.4873 -4.34668 0
      vertex 5.4873 -4.34668 3
    endloop
  endfacet
  facet normal 0.716308 -0.697784 0
    outer loop
      vertex 5.4873 -4.34668 0
      vertex 5.26932 -4.57045 3
      vertex 5.26932 -4.57045 0
    endloop
  endfacet
  facet normal 0.843068 -0.537807 0
    outer loop
      vertex 5.4873 -4.34668 3
      vertex 5.70363 -4.00757 0
      vertex 5.70363 -4.00757 3
    endloop
  endfacet
  facet normal 0.843068 -0.537807 0
    outer loop
      vertex 5.70363 -4.00757 0
      vertex 5.4873 -4.34668 3
      vertex 5.4873 -4.34668 0
    endloop
  endfacet
  facet normal 0.843068 -0.537807 0
    outer loop
      vertex 6.08309 -3.41273 3
      vertex 6.25293 -3.14648 0
      vertex 6.25293 -3.14648 3
    endloop
  endfacet
  facet normal 0.843068 -0.537807 0
    outer loop
      vertex 6.25293 -3.14648 0
      vertex 6.08309 -3.41273 3
      vertex 6.08309 -3.41273 0
    endloop
  endfacet
  facet normal 0.934455 -0.356081 0
    outer loop
      vertex 6.25293 -3.14648 3
      vertex 6.39234 -2.78063 0
      vertex 6.39234 -2.78063 3
    endloop
  endfacet
  facet normal 0.934455 -0.356081 0
    outer loop
      vertex 6.39234 -2.78063 0
      vertex 6.25293 -3.14648 3
      vertex 6.25293 -3.14648 0
    endloop
  endfacet
  facet normal 0.934455 -0.35608 0
    outer loop
      vertex 6.64838 -2.10872 3
      vertex 6.75977 -1.81641 0
      vertex 6.75977 -1.81641 3
    endloop
  endfacet
  facet normal 0.934455 -0.35608 0
    outer loop
      vertex 6.75977 -1.81641 0
      vertex 6.64838 -2.10872 3
      vertex 6.64838 -2.10872 0
    endloop
  endfacet
  facet normal 0.987035 -0.160504 0
    outer loop
      vertex 6.75977 -1.81641 3
      vertex 6.82128 -1.43813 0
      vertex 6.82128 -1.43813 3
    endloop
  endfacet
  facet normal 0.987035 -0.160504 0
    outer loop
      vertex 6.82128 -1.43813 0
      vertex 6.75977 -1.81641 3
      vertex 6.75977 -1.81641 0
    endloop
  endfacet
  facet normal 0.987035 -0.160505 0
    outer loop
      vertex 6.9368 -0.727738 3
      vertex 6.98828 -0.411133 0
      vertex 6.98828 -0.411133 3
    endloop
  endfacet
  facet normal 0.987035 -0.160505 0
    outer loop
      vertex 6.98828 -0.411133 0
      vertex 6.9368 -0.727738 3
      vertex 6.9368 -0.727738 0
    endloop
  endfacet
  facet normal 0.999065 0.0432293 0
    outer loop
      vertex 6.98828 -0.411133 3
      vertex 6.97144 -0.0218032 0
      vertex 6.97144 -0.0218032 3
    endloop
  endfacet
  facet normal 0.999065 0.0432293 0
    outer loop
      vertex 6.97144 -0.0218032 0
      vertex 6.98828 -0.411133 3
      vertex 6.98828 -0.411133 0
    endloop
  endfacet
  facet normal 0.999065 0.0432284 0
    outer loop
      vertex 6.94097 0.682193 3
      vertex 6.92676 1.01074 0
      vertex 6.92676 1.01074 3
    endloop
  endfacet
  facet normal 0.999065 0.0432284 0
    outer loop
      vertex 6.92676 1.01074 0
      vertex 6.94097 0.682193 3
      vertex 6.94097 0.682193 0
    endloop
  endfacet
  facet normal 0.969697 0.244312 0
    outer loop
      vertex 6.65864 2.07493 3
      vertex 6.5791 2.39062 0
      vertex 6.5791 2.39062 3
    endloop
  endfacet
  facet normal 0.969697 0.244312 0
    outer loop
      vertex 6.5791 2.39062 0
      vertex 6.65864 2.07493 3
      vertex 6.65864 2.07493 0
    endloop
  endfacet
  facet normal 0.969697 0.244312 0
    outer loop
      vertex 6.92676 1.01074 3
      vertex 6.83403 1.37879 0
      vertex 6.83403 1.37879 3
    endloop
  endfacet
  facet normal 0.969697 0.244312 0
    outer loop
      vertex 6.83403 1.37879 0
      vertex 6.92676 1.01074 3
      vertex 6.92676 1.01074 0
    endloop
  endfacet
  facet normal 0.900246 0.435382 0
    outer loop
      vertex 6.5791 2.39062 3
      vertex 6.41603 2.7278 0
      vertex 6.41603 2.7278 3
    endloop
  endfacet
  facet normal 0.900246 0.435382 0
    outer loop
      vertex 6.41603 2.7278 0
      vertex 6.5791 2.39062 3
      vertex 6.5791 2.39062 0
    endloop
  endfacet
  facet normal 0.900246 0.435382 0
    outer loop
      vertex 6.10299 3.37509 3
      vertex 5.95898 3.67285 0
      vertex 5.95898 3.67285 3
    endloop
  endfacet
  facet normal 0.900246 0.435382 0
    outer loop
      vertex 5.95898 3.67285 0
      vertex 6.10299 3.37509 3
      vertex 6.10299 3.37509 0
    endloop
  endfacet
  facet normal 0.793363 0.608748 0
    outer loop
      vertex 5.29501 4.53819 3
      vertex 5.09277 4.80176 0
      vertex 5.09277 4.80176 3
    endloop
  endfacet
  facet normal 0.793363 0.608748 0
    outer loop
      vertex 5.09277 4.80176 0
      vertex 5.29501 4.53819 3
      vertex 5.29501 4.53819 0
    endloop
  endfacet
  facet normal 0.793363 0.608749 0
    outer loop
      vertex 5.95898 3.67285 3
      vertex 5.73491 3.96488 0
      vertex 5.73491 3.96488 3
    endloop
  endfacet
  facet normal 0.793363 0.608749 0
    outer loop
      vertex 5.73491 3.96488 0
      vertex 5.95898 3.67285 3
      vertex 5.95898 3.67285 0
    endloop
  endfacet
  facet normal 0.654512 0.756051 -0
    outer loop
      vertex 5.09277 4.80176 0
      vertex 4.81486 5.04235 3
      vertex 5.09277 4.80176 3
    endloop
  endfacet
  facet normal 0.654512 0.756051 0
    outer loop
      vertex 4.81486 5.04235 3
      vertex 5.09277 4.80176 0
      vertex 4.81486 5.04235 0
    endloop
  endfacet
  facet normal 0.654513 0.756051 -0
    outer loop
      vertex 4.27557 5.50921 0
      vertex 4.0166 5.7334 3
      vertex 4.27557 5.50921 3
    endloop
  endfacet
  facet normal 0.654513 0.756051 0
    outer loop
      vertex 4.0166 5.7334 3
      vertex 4.27557 5.50921 0
      vertex 4.0166 5.7334 0
    endloop
  endfacet
  facet normal 0.487098 0.873347 -0
    outer loop
      vertex 3.06884 6.262 0
      vertex 2.77344 6.42676 3
      vertex 3.06884 6.262 3
    endloop
  endfacet
  facet normal 0.487098 0.873347 0
    outer loop
      vertex 2.77344 6.42676 3
      vertex 3.06884 6.262 0
      vertex 2.77344 6.42676 0
    endloop
  endfacet
  facet normal 0.487099 0.873347 -0
    outer loop
      vertex 4.0166 5.7334 0
      vertex 3.70035 5.90979 3
      vertex 4.0166 5.7334 3
    endloop
  endfacet
  facet normal 0.487099 0.873347 0
    outer loop
      vertex 3.70035 5.90979 3
      vertex 4.0166 5.7334 0
      vertex 3.70035 5.90979 0
    endloop
  endfacet
  facet normal 0.301164 0.953572 -0
    outer loop
      vertex 2.77344 6.42676 0
      vertex 2.4338 6.53402 3
      vertex 2.77344 6.42676 3
    endloop
  endfacet
  facet normal 0.301164 0.953572 0
    outer loop
      vertex 2.4338 6.53402 3
      vertex 2.77344 6.42676 0
      vertex 2.4338 6.53402 0
    endloop
  endfacet
  facet normal 0.301164 0.953572 -0
    outer loop
      vertex 1.74825 6.75054 0
      vertex 1.41602 6.85547 3
      vertex 1.74825 6.75054 3
    endloop
  endfacet
  facet normal 0.301164 0.953572 0
    outer loop
      vertex 1.41602 6.85547 3
      vertex 1.74825 6.75054 0
      vertex 1.41602 6.85547 0
    endloop
  endfacet
  facet normal 0.101542 0.994831 -0
    outer loop
      vertex 1.41602 6.85547 0
      vertex 1.05879 6.89193 3
      vertex 1.41602 6.85547 3
    endloop
  endfacet
  facet normal 0.101542 0.994831 0
    outer loop
      vertex 1.05879 6.89193 3
      vertex 1.41602 6.85547 0
      vertex 1.05879 6.89193 0
    endloop
  endfacet
  facet normal 0.101541 0.994831 -0
    outer loop
      vertex 0.354004 6.96387 0
      vertex 0 7 3
      vertex 0.354004 6.96387 3
    endloop
  endfacet
  facet normal 0.101541 0.994831 0
    outer loop
      vertex 0 7 3
      vertex 0.354004 6.96387 0
      vertex 0 7 0
    endloop
  endfacet
  facet normal -0.101541 0.994831 0
    outer loop
      vertex 0 7 0
      vertex -0.354004 6.96387 3
      vertex 0 7 3
    endloop
  endfacet
  facet normal -0.101541 0.994831 0
    outer loop
      vertex -0.354004 6.96387 3
      vertex 0 7 0
      vertex -0.354004 6.96387 0
    endloop
  endfacet
  facet normal -0.101542 0.994831 0
    outer loop
      vertex -1.05879 6.89193 0
      vertex -1.41602 6.85547 3
      vertex -1.05879 6.89193 3
    endloop
  endfacet
  facet normal -0.101542 0.994831 0
    outer loop
      vertex -1.41602 6.85547 3
      vertex -1.05879 6.89193 0
      vertex -1.41602 6.85547 0
    endloop
  endfacet
  facet normal -0.301164 0.953572 0
    outer loop
      vertex -2.4338 6.53402 0
      vertex -2.77344 6.42676 3
      vertex -2.4338 6.53402 3
    endloop
  endfacet
  facet normal -0.301164 0.953572 0
    outer loop
      vertex -2.77344 6.42676 3
      vertex -2.4338 6.53402 0
      vertex -2.77344 6.42676 0
    endloop
  endfacet
  facet normal -0.301164 0.953572 0
    outer loop
      vertex -1.41602 6.85547 0
      vertex -1.74825 6.75054 3
      vertex -1.41602 6.85547 3
    endloop
  endfacet
  facet normal -0.301164 0.953572 0
    outer loop
      vertex -1.74825 6.75054 3
      vertex -1.41602 6.85547 0
      vertex -1.74825 6.75054 0
    endloop
  endfacet
  facet normal -0.487098 0.873347 0
    outer loop
      vertex -2.77344 6.42676 0
      vertex -3.06884 6.262 3
      vertex -2.77344 6.42676 3
    endloop
  endfacet
  facet normal -0.487098 0.873347 0
    outer loop
      vertex -3.06884 6.262 3
      vertex -2.77344 6.42676 0
      vertex -3.06884 6.262 0
    endloop
  endfacet
  facet normal -0.487099 0.873347 0
    outer loop
      vertex -3.70035 5.90979 0
      vertex -4.0166 5.7334 3
      vertex -3.70035 5.90979 3
    endloop
  endfacet
  facet normal -0.487099 0.873347 0
    outer loop
      vertex -4.0166 5.7334 3
      vertex -3.70035 5.90979 0
      vertex -4.0166 5.7334 0
    endloop
  endfacet
  facet normal -0.654512 0.756051 0
    outer loop
      vertex -4.81486 5.04235 0
      vertex -5.09277 4.80176 3
      vertex -4.81486 5.04235 3
    endloop
  endfacet
  facet normal -0.654512 0.756051 0
    outer loop
      vertex -5.09277 4.80176 3
      vertex -4.81486 5.04235 0
      vertex -5.09277 4.80176 0
    endloop
  endfacet
  facet normal -0.654513 0.756051 0
    outer loop
      vertex -4.0166 5.7334 0
      vertex -4.27557 5.50921 3
      vertex -4.0166 5.7334 3
    endloop
  endfacet
  facet normal -0.654513 0.756051 0
    outer loop
      vertex -4.27557 5.50921 3
      vertex -4.0166 5.7334 0
      vertex -4.27557 5.50921 0
    endloop
  endfacet
  facet normal -0.793363 0.608748 0
    outer loop
      vertex -5.29501 4.53819 0
      vertex -5.09277 4.80176 3
      vertex -5.09277 4.80176 0
    endloop
  endfacet
  facet normal -0.793363 0.608748 0
    outer loop
      vertex -5.09277 4.80176 3
      vertex -5.29501 4.53819 0
      vertex -5.29501 4.53819 3
    endloop
  endfacet
  facet normal -0.793363 0.608749 0
    outer loop
      vertex -5.95898 3.67285 0
      vertex -5.73491 3.96488 3
      vertex -5.73491 3.96488 0
    endloop
  endfacet
  facet normal -0.793363 0.608749 0
    outer loop
      vertex -5.73491 3.96488 3
      vertex -5.95898 3.67285 0
      vertex -5.95898 3.67285 3
    endloop
  endfacet
  facet normal -0.900246 0.435382 0
    outer loop
      vertex -6.10299 3.37509 0
      vertex -5.95898 3.67285 3
      vertex -5.95898 3.67285 0
    endloop
  endfacet
  facet normal -0.900246 0.435382 0
    outer loop
      vertex -5.95898 3.67285 3
      vertex -6.10299 3.37509 0
      vertex -6.10299 3.37509 3
    endloop
  endfacet
  facet normal -0.900246 0.435382 0
    outer loop
      vertex -6.5791 2.39062 0
      vertex -6.41603 2.7278 3
      vertex -6.41603 2.7278 0
    endloop
  endfacet
  facet normal -0.900246 0.435382 0
    outer loop
      vertex -6.41603 2.7278 3
      vertex -6.5791 2.39062 0
      vertex -6.5791 2.39062 3
    endloop
  endfacet
  facet normal -0.969697 0.244312 0
    outer loop
      vertex -6.65864 2.07493 0
      vertex -6.5791 2.39062 3
      vertex -6.5791 2.39062 0
    endloop
  endfacet
  facet normal -0.969697 0.244312 0
    outer loop
      vertex -6.5791 2.39062 3
      vertex -6.65864 2.07493 0
      vertex -6.65864 2.07493 3
    endloop
  endfacet
  facet normal -0.969697 0.244312 0
    outer loop
      vertex -6.92676 1.01074 0
      vertex -6.83403 1.37879 3
      vertex -6.83403 1.37879 0
    endloop
  endfacet
  facet normal -0.969697 0.244312 0
    outer loop
      vertex -6.83403 1.37879 3
      vertex -6.92676 1.01074 0
      vertex -6.92676 1.01074 3
    endloop
  endfacet
  facet normal -0.999065 0.0432284 0
    outer loop
      vertex -6.94097 0.682193 0
      vertex -6.92676 1.01074 3
      vertex -6.92676 1.01074 0
    endloop
  endfacet
  facet normal -0.999065 0.0432284 0
    outer loop
      vertex -6.92676 1.01074 3
      vertex -6.94097 0.682193 0
      vertex -6.94097 0.682193 3
    endloop
  endfacet
  facet normal -0.999065 0.0432293 0
    outer loop
      vertex -6.98828 -0.411133 0
      vertex -6.97144 -0.0218032 3
      vertex -6.97144 -0.0218032 0
    endloop
  endfacet
  facet normal -0.999065 0.0432293 0
    outer loop
      vertex -6.97144 -0.0218032 3
      vertex -6.98828 -0.411133 0
      vertex -6.98828 -0.411133 3
    endloop
  endfacet
  facet normal -0.987035 -0.160504 0
    outer loop
      vertex -6.75977 -1.81641 0
      vertex -6.82128 -1.43813 3
      vertex -6.82128 -1.43813 0
    endloop
  endfacet
  facet normal -0.987035 -0.160504 0
    outer loop
      vertex -6.82128 -1.43813 3
      vertex -6.75977 -1.81641 0
      vertex -6.75977 -1.81641 3
    endloop
  endfacet
  facet normal -0.987035 -0.160505 0
    outer loop
      vertex -6.9368 -0.727738 0
      vertex -6.98828 -0.411133 3
      vertex -6.98828 -0.411133 0
    endloop
  endfacet
  facet normal -0.987035 -0.160505 0
    outer loop
      vertex -6.98828 -0.411133 3
      vertex -6.9368 -0.727738 0
      vertex -6.9368 -0.727738 3
    endloop
  endfacet
  facet normal -0.934455 -0.35608 0
    outer loop
      vertex -6.64838 -2.10872 0
      vertex -6.75977 -1.81641 3
      vertex -6.75977 -1.81641 0
    endloop
  endfacet
  facet normal -0.934455 -0.35608 0
    outer loop
      vertex -6.75977 -1.81641 3
      vertex -6.64838 -2.10872 0
      vertex -6.64838 -2.10872 3
    endloop
  endfacet
  facet normal -0.934455 -0.356081 0
    outer loop
      vertex -6.25293 -3.14648 0
      vertex -6.39234 -2.78063 3
      vertex -6.39234 -2.78063 0
    endloop
  endfacet
  facet normal -0.934455 -0.356081 0
    outer loop
      vertex -6.39234 -2.78063 3
      vertex -6.25293 -3.14648 0
      vertex -6.25293 -3.14648 3
    endloop
  endfacet
  facet normal -0.843068 -0.537807 0
    outer loop
      vertex -6.08309 -3.41273 0
      vertex -6.25293 -3.14648 3
      vertex -6.25293 -3.14648 0
    endloop
  endfacet
  facet normal -0.843068 -0.537807 0
    outer loop
      vertex -6.25293 -3.14648 3
      vertex -6.08309 -3.41273 0
      vertex -6.08309 -3.41273 3
    endloop
  endfacet
  facet normal -0.843068 -0.537807 0
    outer loop
      vertex -5.4873 -4.34668 0
      vertex -5.70363 -4.00757 3
      vertex -5.70363 -4.00757 0
    endloop
  endfacet
  facet normal -0.843068 -0.537807 0
    outer loop
      vertex -5.70363 -4.00757 3
      vertex -5.4873 -4.34668 0
      vertex -5.4873 -4.34668 3
    endloop
  endfacet
  facet normal -0.716309 -0.697783 0
    outer loop
      vertex -4.49414 -5.36621 0
      vertex -4.77352 -5.07942 3
      vertex -4.77352 -5.07942 0
    endloop
  endfacet
  facet normal -0.716309 -0.697783 0
    outer loop
      vertex -4.77352 -5.07942 3
      vertex -4.49414 -5.36621 0
      vertex -4.49414 -5.36621 3
    endloop
  endfacet
  facet normal -0.716308 -0.697784 0
    outer loop
      vertex -5.26932 -4.57045 0
      vertex -5.4873 -4.34668 3
      vertex -5.4873 -4.34668 0
    endloop
  endfacet
  facet normal -0.716308 -0.697784 0
    outer loop
      vertex -5.4873 -4.34668 3
      vertex -5.26932 -4.57045 0
      vertex -5.26932 -4.57045 3
    endloop
  endfacet
  facet normal -0.561015 -0.827805 0
    outer loop
      vertex -4.49414 -5.36621 0
      vertex -4.24344 -5.53612 3
      vertex -4.49414 -5.36621 3
    endloop
  endfacet
  facet normal -0.561015 -0.827805 -0
    outer loop
      vertex -4.24344 -5.53612 3
      vertex -4.49414 -5.36621 0
      vertex -4.24344 -5.53612 0
    endloop
  endfacet
  facet normal -0.561015 -0.827806 0
    outer loop
      vertex -3.64943 -5.93868 0
      vertex -3.31543 -6.16504 3
      vertex -3.64943 -5.93868 3
    endloop
  endfacet
  facet normal -0.561015 -0.827806 -0
    outer loop
      vertex -3.31543 -6.16504 3
      vertex -3.64943 -5.93868 0
      vertex -3.31543 -6.16504 0
    endloop
  endfacet
  facet normal -0.381543 -0.924351 0
    outer loop
      vertex -2.76074 -6.394 0
      vertex -2 -6.70801 3
      vertex -2.76074 -6.394 3
    endloop
  endfacet
  facet normal -0.381543 -0.924351 -0
    outer loop
      vertex -2 -6.70801 3
      vertex -2.76074 -6.394 0
      vertex -2 -6.70801 0
    endloop
  endfacet
  facet normal -0.381543 -0.924351 0
    outer loop
      vertex -3.31543 -6.16504 0
      vertex -3.03869 -6.27927 3
      vertex -3.31543 -6.16504 3
    endloop
  endfacet
  facet normal -0.381543 -0.924351 -0
    outer loop
      vertex -3.03869 -6.27927 3
      vertex -3.31543 -6.16504 0
      vertex -3.03869 -6.27927 0
    endloop
  endfacet
  facet normal -1 0 0
    outer loop
      vertex -2 -12.1104 0
      vertex -2 -6.70801 3
      vertex -2 -6.70801 0
    endloop
  endfacet
  facet normal -1 -0 0
    outer loop
      vertex -2 -6.70801 3
      vertex -2 -12.1104 0
      vertex -2 -12.1104 3
    endloop
  endfacet
  facet normal -0.994467 -0.105049 0
    outer loop
      vertex -1.95605 -12.5264 0
      vertex -2 -12.1104 3
      vertex -2 -12.1104 0
    endloop
  endfacet
  facet normal -0.994467 -0.105049 0
    outer loop
      vertex -2 -12.1104 3
      vertex -1.95605 -12.5264 0
      vertex -1.95605 -12.5264 3
    endloop
  endfacet
  facet normal -0.951223 -0.308505 0
    outer loop
      vertex -1.82715 -12.9238 0
      vertex -1.95605 -12.5264 3
      vertex -1.95605 -12.5264 0
    endloop
  endfacet
  facet normal -0.951223 -0.308505 0
    outer loop
      vertex -1.95605 -12.5264 3
      vertex -1.82715 -12.9238 0
      vertex -1.82715 -12.9238 3
    endloop
  endfacet
  facet normal -0.866224 -0.499655 0
    outer loop
      vertex -1.61816 -13.2861 0
      vertex -1.82715 -12.9238 3
      vertex -1.82715 -12.9238 0
    endloop
  endfacet
  facet normal -0.866224 -0.499655 0
    outer loop
      vertex -1.82715 -12.9238 3
      vertex -1.61816 -13.2861 0
      vertex -1.61816 -13.2861 3
    endloop
  endfacet
  facet normal -0.742365 -0.669996 0
    outer loop
      vertex -1.33789 -13.5967 0
      vertex -1.61816 -13.2861 3
      vertex -1.61816 -13.2861 0
    endloop
  endfacet
  facet normal -0.742365 -0.669996 0
    outer loop
      vertex -1.61816 -13.2861 3
      vertex -1.33789 -13.5967 0
      vertex -1.33789 -13.5967 3
    endloop
  endfacet
  facet normal -0.588727 -0.808332 0
    outer loop
      vertex -1.33789 -13.5967 0
      vertex -1 -13.8428 3
      vertex -1.33789 -13.5967 3
    endloop
  endfacet
  facet normal -0.588727 -0.808332 -0
    outer loop
      vertex -1 -13.8428 3
      vertex -1.33789 -13.5967 0
      vertex -1 -13.8428 0
    endloop
  endfacet
  facet normal -0.406572 -0.913619 0
    outer loop
      vertex -1 -13.8428 0
      vertex -0.618164 -14.0127 3
      vertex -1 -13.8428 3
    endloop
  endfacet
  facet normal -0.406572 -0.913619 -0
    outer loop
      vertex -0.618164 -14.0127 3
      vertex -1 -13.8428 0
      vertex -0.618164 -14.0127 0
    endloop
  endfacet
  facet normal -0.207775 -0.978177 0
    outer loop
      vertex -0.618164 -14.0127 0
      vertex -0.208984 -14.0996 3
      vertex -0.618164 -14.0127 3
    endloop
  endfacet
  facet normal -0.207775 -0.978177 -0
    outer loop
      vertex -0.208984 -14.0996 3
      vertex -0.618164 -14.0127 0
      vertex -0.208984 -14.0996 0
    endloop
  endfacet
  facet normal 0 -1 0
    outer loop
      vertex -0.208984 -14.0996 0
      vertex 0.208984 -14.0996 3
      vertex -0.208984 -14.0996 3
    endloop
  endfacet
  facet normal 0 -1 -0
    outer loop
      vertex 0.208984 -14.0996 3
      vertex -0.208984 -14.0996 0
      vertex 0.208984 -14.0996 0
    endloop
  endfacet
  facet normal 0.207775 -0.978177 0
    outer loop
      vertex 0.208984 -14.0996 0
      vertex 0.618164 -14.0127 3
      vertex 0.208984 -14.0996 3
    endloop
  endfacet
  facet normal 0.207775 -0.978177 0
    outer loop
      vertex 0.618164 -14.0127 3
      vertex 0.208984 -14.0996 0
      vertex 0.618164 -14.0127 0
    endloop
  endfacet
  facet normal 0 0 1
    outer loop
      vertex 4 0 7
      vertex 6.99023 0.361328 7
      vertex 6.77539 1.76074 7
    endloop
  endfacet
  facet normal 0 0 1
    outer loop
      vertex 6.99023 0.361328 7
      vertex 4 0 7
      vertex 6.9209 -1.05176 7
    endloop
  endfacet
  facet normal 0 0 1
    outer loop
      vertex 4 0 7
      vertex 6.77539 1.76074 7
      vertex 6.28223 3.08789 7
    endloop
  endfacet
  facet normal 0 0 1
    outer loop
      vertex 6.9209 -1.05176 7
      vertex 4 0 7
      vertex 6.56738 -2.42285 7
    endloop
  endfacet
  facet normal -0 0 1
    outer loop
      vertex 2 3.4641 7
      vertex 6.28223 3.08789 7
      vertex 5.5332 4.28809 7
    endloop
  endfacet
  facet normal 0 0 1
    outer loop
      vertex 6.56738 -2.42285 7
      vertex 4 0 7
      vertex 5.94531 -3.69434 7
    endloop
  endfacet
  facet normal 0 0 1
    outer loop
      vertex 2 3.4641 7
      vertex 5.5332 4.28809 7
      vertex 4.55664 5.31348 7
    endloop
  endfacet
  facet normal -0 0 1
    outer loop
      vertex 2 -3.4641 7
      vertex 5.94531 -3.69434 7
      vertex 4 0 7
    endloop
  endfacet
  facet normal 0 0 1
    outer loop
      vertex 5.94531 -3.69434 7
      vertex 2 -3.4641 7
      vertex 5.08105 -4.81445 7
    endloop
  endfacet
  facet normal 0 0 1
    outer loop
      vertex 2 3.4641 7
      vertex 4.55664 5.31348 7
      vertex 3.39551 6.12207 7
    endloop
  endfacet
  facet normal 0 0 1
    outer loop
      vertex 2 3.4641 7
      vertex 3.39551 6.12207 7
      vertex 2.09375 6.67969 7
    endloop
  endfacet
  facet normal 0 0 1
    outer loop
      vertex 6.28223 3.08789 7
      vertex 2 3.4641 7
      vertex 4 0 7
    endloop
  endfacet
  facet normal 0 0 1
    outer loop
      vertex 0.708008 6.96387 7
      vertex 2 3.4641 7
      vertex 2.09375 6.67969 7
    endloop
  endfacet
  facet normal -0 0 1
    outer loop
      vertex -0.708008 6.96387 7
      vertex 2 3.4641 7
      vertex 0.708008 6.96387 7
    endloop
  endfacet
  facet normal 0 0 1
    outer loop
      vertex -0.708008 6.96387 7
      vertex -2 3.4641 7
      vertex 2 3.4641 7
    endloop
  endfacet
  facet normal -0 0 1
    outer loop
      vertex -2.09375 6.67969 7
      vertex -2 3.4641 7
      vertex -0.708008 6.96387 7
    endloop
  endfacet
  facet normal -0 0 1
    outer loop
      vertex -3.39551 6.12207 7
      vertex -2 3.4641 7
      vertex -2.09375 6.67969 7
    endloop
  endfacet
  facet normal -0 0 1
    outer loop
      vertex -4.55664 5.31348 7
      vertex -2 3.4641 7
      vertex -3.39551 6.12207 7
    endloop
  endfacet
  facet normal -0 0 1
    outer loop
      vertex -5.5332 4.28809 7
      vertex -2 3.4641 7
      vertex -4.55664 5.31348 7
    endloop
  endfacet
  facet normal 0 0 1
    outer loop
      vertex -6.28223 3.08789 7
      vertex -2 3.4641 7
      vertex -5.5332 4.28809 7
    endloop
  endfacet
  facet normal 0 0 1
    outer loop
      vertex -4 0 7
      vertex -5.08105 -4.81445 7
      vertex -4.00879 -5.73828 7
    endloop
  endfacet
  facet normal 0 0 1
    outer loop
      vertex -2 3.4641 7
      vertex -6.28223 3.08789 7
      vertex -4 0 7
    endloop
  endfacet
  facet normal 0 0 1
    outer loop
      vertex -4 0 7
      vertex -5.94531 -3.69434 7
      vertex -5.08105 -4.81445 7
    endloop
  endfacet
  facet normal -0 0 1
    outer loop
      vertex -6.77539 1.76074 7
      vertex -4 0 7
      vertex -6.28223 3.08789 7
    endloop
  endfacet
  facet normal 0 0 1
    outer loop
      vertex -4 0 7
      vertex -6.56738 -2.42285 7
      vertex -5.94531 -3.69434 7
    endloop
  endfacet
  facet normal -0 0 1
    outer loop
      vertex -6.99023 0.361328 7
      vertex -4 0 7
      vertex -6.77539 1.76074 7
    endloop
  endfacet
  facet normal 0 0 1
    outer loop
      vertex -4 0 7
      vertex -6.9209 -1.05176 7
      vertex -6.56738 -2.42285 7
    endloop
  endfacet
  facet normal 0 0 1
    outer loop
      vertex -4 0 7
      vertex -6.99023 0.361328 7
      vertex -6.9209 -1.05176 7
    endloop
  endfacet
  facet normal 0 0 1
    outer loop
      vertex 5.08105 -4.81445 7
      vertex 2 -3.4641 7
      vertex 4.00879 -5.73828 7
    endloop
  endfacet
  facet normal 0 0 1
    outer loop
      vertex 4.00879 -5.73828 7
      vertex 2.63477 -6.03125 7
      vertex 2.77246 -6.42773 7
    endloop
  endfacet
  facet normal -0 -0 1
    outer loop
      vertex 2.3877 -5.66406 7
      vertex 4.00879 -5.73828 7
      vertex 2 -3.4641 7
    endloop
  endfacet
  facet normal 0 0 1
    outer loop
      vertex 4.00879 -5.73828 7
      vertex 2.3877 -5.66406 7
      vertex 2.63477 -6.03125 7
    endloop
  endfacet
  facet normal 0 0 1
    outer loop
      vertex 2.3877 -5.66406 7
      vertex 2 -3.4641 7
      vertex 2.04199 -5.33984 7
    endloop
  endfacet
  facet normal 0 0 1
    outer loop
      vertex 2 -3.4641 7
      vertex 1.61035 -5.07227 7
      vertex 2.04199 -5.33984 7
    endloop
  endfacet
  facet normal 0 0 1
    outer loop
      vertex 2 -3.4641 7
      vertex 1.1123 -4.87305 7
      vertex 1.61035 -5.07227 7
    endloop
  endfacet
  facet normal 0 0 1
    outer loop
      vertex 2 -3.4641 7
      vertex 0.568359 -4.75 7
      vertex 1.1123 -4.87305 7
    endloop
  endfacet
  facet normal 0 0 1
    outer loop
      vertex 2 -3.4641 7
      vertex 0 -4.70801 7
      vertex 0.568359 -4.75 7
    endloop
  endfacet
  facet normal -0 0 1
    outer loop
      vertex -2 -3.4641 7
      vertex 0 -4.70801 7
      vertex 2 -3.4641 7
    endloop
  endfacet
  facet normal 0 0 1
    outer loop
      vertex 0 -4.70801 7
      vertex -2 -3.4641 7
      vertex -0.568359 -4.75 7
    endloop
  endfacet
  facet normal 0 0 1
    outer loop
      vertex -0.568359 -4.75 7
      vertex -2 -3.4641 7
      vertex -1.1123 -4.87305 7
    endloop
  endfacet
  facet normal 0 0 1
    outer loop
      vertex -1.1123 -4.87305 7
      vertex -2 -3.4641 7
      vertex -1.61035 -5.07227 7
    endloop
  endfacet
  facet normal 0 0 1
    outer loop
      vertex -2 -3.4641 7
      vertex -2.04199 -5.33984 7
      vertex -1.61035 -5.07227 7
    endloop
  endfacet
  facet normal 0 0 1
    outer loop
      vertex -2 -3.4641 7
      vertex -2.3877 -5.66406 7
      vertex -2.04199 -5.33984 7
    endloop
  endfacet
  facet normal 0 0 1
    outer loop
      vertex -4.00879 -5.73828 7
      vertex -2.3877 -5.66406 7
      vertex -2 -3.4641 7
    endloop
  endfacet
  facet normal 0 0 1
    outer loop
      vertex -2.3877 -5.66406 7
      vertex -4.00879 -5.73828 7
      vertex -2.63477 -6.03125 7
    endloop
  endfacet
  facet normal 0 0 1
    outer loop
      vertex -4.00879 -5.73828 7
      vertex -2 -3.4641 7
      vertex -4 0 7
    endloop
  endfacet
  facet normal 0 0 1
    outer loop
      vertex -2.63477 -6.03125 7
      vertex -4.00879 -5.73828 7
      vertex -2.77246 -6.42773 7
    endloop
  endfacet
  facet normal 0.652721 -0.757598 6.14487e-008
    outer loop
      vertex 4.77352 -5.07942 3
      vertex 4.00879 -5.73828 7
      vertex 4.24344 -5.53612 3
    endloop
  endfacet
  facet normal 0.652721 -0.757599 0
    outer loop
      vertex 4.00879 -5.73828 0
      vertex 4.24344 -5.53612 3
      vertex 4.00879 -5.73828 7
    endloop
  endfacet
  facet normal 0.652721 -0.757599 0
    outer loop
      vertex 4.24344 -5.53612 3
      vertex 4.00879 -5.73828 0
      vertex 4.24344 -5.53612 0
    endloop
  endfacet
  facet normal 0.652721 -0.757598 -1.49699e-008
    outer loop
      vertex 4.00879 -5.73828 7
      vertex 4.77352 -5.07942 3
      vertex 5.08105 -4.81445 7
    endloop
  endfacet
  facet normal 0.652721 -0.757598 0
    outer loop
      vertex 5.08105 -4.81445 0
      vertex 4.77352 -5.07942 3
      vertex 4.77352 -5.07942 0
    endloop
  endfacet
  facet normal 0.652721 -0.757598 0
    outer loop
      vertex 4.77352 -5.07942 3
      vertex 5.08105 -4.81445 0
      vertex 5.08105 -4.81445 7
    endloop
  endfacet
  facet normal 0.791725 -0.610878 0
    outer loop
      vertex 5.94531 -3.69434 7
      vertex 5.70363 -4.00757 3
      vertex 5.94531 -3.69434 0
    endloop
  endfacet
  facet normal 0.791725 -0.610878 -3.1762e-008
    outer loop
      vertex 5.08105 -4.81445 7
      vertex 5.70363 -4.00757 3
      vertex 5.94531 -3.69434 7
    endloop
  endfacet
  facet normal 0.791725 -0.610878 -3.57725e-008
    outer loop
      vertex 5.70363 -4.00757 3
      vertex 5.08105 -4.81445 7
      vertex 5.26932 -4.57045 3
    endloop
  endfacet
  facet normal 0.791725 -0.610877 0
    outer loop
      vertex 5.08105 -4.81445 0
      vertex 5.26932 -4.57045 3
      vertex 5.08105 -4.81445 7
    endloop
  endfacet
  facet normal 0.791725 -0.610877 0
    outer loop
      vertex 5.26932 -4.57045 3
      vertex 5.08105 -4.81445 0
      vertex 5.26932 -4.57045 0
    endloop
  endfacet
  facet normal 0.791725 -0.610878 0
    outer loop
      vertex 5.94531 -3.69434 0
      vertex 5.70363 -4.00757 3
      vertex 5.70363 -4.00757 0
    endloop
  endfacet
  facet normal 0.898257 -0.43947 0
    outer loop
      vertex 6.56738 -2.42285 7
      vertex 6.39234 -2.78063 3
      vertex 6.56738 -2.42285 0
    endloop
  endfacet
  facet normal 0.898257 -0.43947 4.69197e-008
    outer loop
      vertex 5.94531 -3.69434 7
      vertex 6.39234 -2.78063 3
      vertex 6.56738 -2.42285 7
    endloop
  endfacet
  facet normal 0.898257 -0.43947 6.02347e-008
    outer loop
      vertex 6.39234 -2.78063 3
      vertex 5.94531 -3.69434 7
      vertex 6.08309 -3.41273 3
    endloop
  endfacet
  facet normal 0.898257 -0.439471 0
    outer loop
      vertex 5.94531 -3.69434 0
      vertex 6.08309 -3.41273 3
      vertex 5.94531 -3.69434 7
    endloop
  endfacet
  facet normal 0.898257 -0.439471 0
    outer loop
      vertex 6.08309 -3.41273 3
      vertex 5.94531 -3.69434 0
      vertex 6.08309 -3.41273 0
    endloop
  endfacet
  facet normal 0.898257 -0.43947 0
    outer loop
      vertex 6.56738 -2.42285 0
      vertex 6.39234 -2.78063 3
      vertex 6.39234 -2.78063 0
    endloop
  endfacet
  facet normal 0.968331 -0.24967 0
    outer loop
      vertex 6.9209 -1.05176 7
      vertex 6.82128 -1.43813 3
      vertex 6.9209 -1.05176 0
    endloop
  endfacet
  facet normal 0.968331 -0.249669 -2.32266e-008
    outer loop
      vertex 6.56738 -2.42285 7
      vertex 6.82128 -1.43813 3
      vertex 6.9209 -1.05176 7
    endloop
  endfacet
  facet normal 0.968331 -0.249669 8.25946e-008
    outer loop
      vertex 6.82128 -1.43813 3
      vertex 6.56738 -2.42285 7
      vertex 6.64838 -2.10872 3
    endloop
  endfacet
  facet normal 0.968331 -0.24967 0
    outer loop
      vertex 6.56738 -2.42285 0
      vertex 6.64838 -2.10872 3
      vertex 6.56738 -2.42285 7
    endloop
  endfacet
  facet normal 0.968331 -0.24967 0
    outer loop
      vertex 6.64838 -2.10872 3
      vertex 6.56738 -2.42285 0
      vertex 6.64838 -2.10872 0
    endloop
  endfacet
  facet normal 0.968331 -0.24967 0
    outer loop
      vertex 6.9209 -1.05176 0
      vertex 6.82128 -1.43813 3
      vertex 6.82128 -1.43813 0
    endloop
  endfacet
  facet normal 0.998798 -0.0490086 0
    outer loop
      vertex 6.99023 0.361328 7
      vertex 6.97144 -0.0218032 3
      vertex 6.99023 0.361328 0
    endloop
  endfacet
  facet normal 0.998798 -0.0490081 -4.66702e-008
    outer loop
      vertex 6.9209 -1.05176 7
      vertex 6.97144 -0.0218032 3
      vertex 6.99023 0.361328 7
    endloop
  endfacet
  facet normal 0.998798 -0.0490078 2.975e-008
    outer loop
      vertex 6.97144 -0.0218032 3
      vertex 6.9209 -1.05176 7
      vertex 6.9368 -0.727738 3
    endloop
  endfacet
  facet normal 0.998798 -0.0490081 0
    outer loop
      vertex 6.9209 -1.05176 0
      vertex 6.9368 -0.727738 3
      vertex 6.9209 -1.05176 7
    endloop
  endfacet
  facet normal 0.998798 -0.0490081 0
    outer loop
      vertex 6.9368 -0.727738 3
      vertex 6.9209 -1.05176 0
      vertex 6.9368 -0.727738 0
    endloop
  endfacet
  facet normal 0.998798 -0.0490086 0
    outer loop
      vertex 6.99023 0.361328 0
      vertex 6.97144 -0.0218032 3
      vertex 6.97144 -0.0218032 0
    endloop
  endfacet
  facet normal 0.98842 0.151746 0
    outer loop
      vertex 6.77539 1.76074 7
      vertex 6.83403 1.37879 3
      vertex 6.77539 1.76074 0
    endloop
  endfacet
  facet normal 0.988419 0.151746 -4.21816e-008
    outer loop
      vertex 6.99023 0.361328 7
      vertex 6.83403 1.37879 3
      vertex 6.77539 1.76074 7
    endloop
  endfacet
  facet normal 0.988419 0.151746 -2.30257e-008
    outer loop
      vertex 6.83403 1.37879 3
      vertex 6.99023 0.361328 7
      vertex 6.94097 0.682193 3
    endloop
  endfacet
  facet normal 0.988419 0.151747 -0
    outer loop
      vertex 6.99023 0.361328 0
      vertex 6.94097 0.682193 3
      vertex 6.99023 0.361328 7
    endloop
  endfacet
  facet normal 0.988419 0.151747 0
    outer loop
      vertex 6.94097 0.682193 3
      vertex 6.99023 0.361328 0
      vertex 6.94097 0.682193 0
    endloop
  endfacet
  facet normal 0.98842 0.151746 0
    outer loop
      vertex 6.77539 1.76074 0
      vertex 6.83403 1.37879 3
      vertex 6.83403 1.37879 0
    endloop
  endfacet
  facet normal 0.937374 0.348325 0
    outer loop
      vertex 6.28223 3.08789 7
      vertex 6.41603 2.7278 3
      vertex 6.28223 3.08789 0
    endloop
  endfacet
  facet normal 0.937374 0.348325 6.70133e-009
    outer loop
      vertex 6.77539 1.76074 7
      vertex 6.41603 2.7278 3
      vertex 6.28223 3.08789 7
    endloop
  endfacet
  facet normal 0.937374 0.348325 3.79416e-008
    outer loop
      vertex 6.41603 2.7278 3
      vertex 6.77539 1.76074 7
      vertex 6.65864 2.07493 3
    endloop
  endfacet
  facet normal 0.937374 0.348325 -0
    outer loop
      vertex 6.77539 1.76074 0
      vertex 6.65864 2.07493 3
      vertex 6.77539 1.76074 7
    endloop
  endfacet
  facet normal 0.937374 0.348325 0
    outer loop
      vertex 6.65864 2.07493 3
      vertex 6.77539 1.76074 0
      vertex 6.65864 2.07493 0
    endloop
  endfacet
  facet normal 0.937374 0.348325 0
    outer loop
      vertex 6.28223 3.08789 0
      vertex 6.41603 2.7278 3
      vertex 6.41603 2.7278 0
    endloop
  endfacet
  facet normal 0.848347 0.52944 0
    outer loop
      vertex 5.5332 4.28809 7
      vertex 5.73491 3.96488 3
      vertex 5.5332 4.28809 0
    endloop
  endfacet
  facet normal 0.848347 0.52944 -1.75757e-008
    outer loop
      vertex 5.5332 4.28809 7
      vertex 6.10299 3.37509 3
      vertex 5.73491 3.96488 3
    endloop
  endfacet
  facet normal 0.848347 0.52944 -1.53465e-008
    outer loop
      vertex 6.28223 3.08789 7
      vertex 6.10299 3.37509 3
      vertex 5.5332 4.28809 7
    endloop
  endfacet
  facet normal 0.848347 0.529441 -0
    outer loop
      vertex 6.28223 3.08789 0
      vertex 6.10299 3.37509 3
      vertex 6.28223 3.08789 7
    endloop
  endfacet
  facet normal 0.848347 0.529441 0
    outer loop
      vertex 6.10299 3.37509 3
      vertex 6.28223 3.08789 0
      vertex 6.10299 3.37509 0
    endloop
  endfacet
  facet normal 0.848347 0.52944 0
    outer loop
      vertex 5.5332 4.28809 0
      vertex 5.73491 3.96488 3
      vertex 5.73491 3.96488 0
    endloop
  endfacet
  facet normal 0.724138 0.689655 0
    outer loop
      vertex 4.55664 5.31348 7
      vertex 4.81486 5.04235 3
      vertex 4.55664 5.31348 0
    endloop
  endfacet
  facet normal 0.724138 0.689655 -2.27639e-008
    outer loop
      vertex 4.55664 5.31348 7
      vertex 5.29501 4.53819 3
      vertex 4.81486 5.04235 3
    endloop
  endfacet
  facet normal 0.724138 0.689655 -1.64427e-008
    outer loop
      vertex 5.5332 4.28809 7
      vertex 5.29501 4.53819 3
      vertex 4.55664 5.31348 7
    endloop
  endfacet
  facet normal 0.724138 0.689655 -0
    outer loop
      vertex 5.5332 4.28809 0
      vertex 5.29501 4.53819 3
      vertex 5.5332 4.28809 7
    endloop
  endfacet
  facet normal 0.724138 0.689655 0
    outer loop
      vertex 5.29501 4.53819 3
      vertex 5.5332 4.28809 0
      vertex 5.29501 4.53819 0
    endloop
  endfacet
  facet normal 0.724138 0.689655 0
    outer loop
      vertex 4.55664 5.31348 0
      vertex 4.81486 5.04235 3
      vertex 4.81486 5.04235 0
    endloop
  endfacet
  facet normal 0.571469 0.820624 -8.30986e-009
    outer loop
      vertex 4.55664 5.31348 7
      vertex 4.27557 5.50921 3
      vertex 3.39551 6.12207 7
    endloop
  endfacet
  facet normal 0.571469 0.820624 -0
    outer loop
      vertex 4.55664 5.31348 0
      vertex 4.27557 5.50921 3
      vertex 4.55664 5.31348 7
    endloop
  endfacet
  facet normal 0.571469 0.820624 0
    outer loop
      vertex 4.27557 5.50921 3
      vertex 4.55664 5.31348 0
      vertex 4.27557 5.50921 0
    endloop
  endfacet
  facet normal 0.571469 0.820624 1.37187e-008
    outer loop
      vertex 3.70035 5.90979 3
      vertex 3.39551 6.12207 7
      vertex 4.27557 5.50921 3
    endloop
  endfacet
  facet normal 0.571469 0.820624 0
    outer loop
      vertex 3.39551 6.12207 0
      vertex 3.70035 5.90979 3
      vertex 3.70035 5.90979 0
    endloop
  endfacet
  facet normal 0.571469 0.820624 0
    outer loop
      vertex 3.70035 5.90979 3
      vertex 3.39551 6.12207 0
      vertex 3.39551 6.12207 7
    endloop
  endfacet
  facet normal 0.393753 0.919216 1.35638e-008
    outer loop
      vertex 3.39551 6.12207 7
      vertex 3.06884 6.262 3
      vertex 2.09375 6.67969 7
    endloop
  endfacet
  facet normal 0.393753 0.919216 -0
    outer loop
      vertex 3.39551 6.12207 0
      vertex 3.06884 6.262 3
      vertex 3.39551 6.12207 7
    endloop
  endfacet
  facet normal 0.393753 0.919216 0
    outer loop
      vertex 3.06884 6.262 3
      vertex 3.39551 6.12207 0
      vertex 3.06884 6.262 0
    endloop
  endfacet
  facet normal 0.393752 0.919217 -9.07603e-008
    outer loop
      vertex 2.4338 6.53402 3
      vertex 2.09375 6.67969 7
      vertex 3.06884 6.262 3
    endloop
  endfacet
  facet normal 0.393753 0.919216 0
    outer loop
      vertex 2.09375 6.67969 0
      vertex 2.4338 6.53402 3
      vertex 2.4338 6.53402 0
    endloop
  endfacet
  facet normal 0.393753 0.919216 0
    outer loop
      vertex 2.4338 6.53402 3
      vertex 2.09375 6.67969 0
      vertex 2.09375 6.67969 7
    endloop
  endfacet
  facet normal 0.200893 0.979613 4.15392e-008
    outer loop
      vertex 2.09375 6.67969 7
      vertex 1.74825 6.75054 3
      vertex 0.708008 6.96387 7
    endloop
  endfacet
  facet normal 0.200894 0.979613 -0
    outer loop
      vertex 2.09375 6.67969 0
      vertex 1.74825 6.75054 3
      vertex 2.09375 6.67969 7
    endloop
  endfacet
  facet normal 0.200894 0.979613 0
    outer loop
      vertex 1.74825 6.75054 3
      vertex 2.09375 6.67969 0
      vertex 1.74825 6.75054 0
    endloop
  endfacet
  facet normal 0.200893 0.979613 4.98275e-008
    outer loop
      vertex 1.05879 6.89193 3
      vertex 0.708008 6.96387 7
      vertex 1.74825 6.75054 3
    endloop
  endfacet
  facet normal 0.200893 0.979613 0
    outer loop
      vertex 0.708008 6.96387 0
      vertex 1.05879 6.89193 3
      vertex 1.05879 6.89193 0
    endloop
  endfacet
  facet normal 0.200893 0.979613 0
    outer loop
      vertex 1.05879 6.89193 3
      vertex 0.708008 6.96387 0
      vertex 0.708008 6.96387 7
    endloop
  endfacet
  facet normal 0 1 0
    outer loop
      vertex 0.708008 6.96387 7
      vertex 0.354004 6.96387 3
      vertex -0.708008 6.96387 7
    endloop
  endfacet
  facet normal 0 1 -0
    outer loop
      vertex 0.708008 6.96387 0
      vertex 0.354004 6.96387 3
      vertex 0.708008 6.96387 7
    endloop
  endfacet
  facet normal 0 1 0
    outer loop
      vertex 0.354004 6.96387 3
      vertex 0.708008 6.96387 0
      vertex 0.354004 6.96387 0
    endloop
  endfacet
  facet normal 0 1 -0
    outer loop
      vertex -0.354004 6.96387 3
      vertex -0.708008 6.96387 7
      vertex 0.354004 6.96387 3
    endloop
  endfacet
  facet normal 0 1 0
    outer loop
      vertex -0.708008 6.96387 0
      vertex -0.354004 6.96387 3
      vertex -0.354004 6.96387 0
    endloop
  endfacet
  facet normal 0 1 0
    outer loop
      vertex -0.354004 6.96387 3
      vertex -0.708008 6.96387 0
      vertex -0.708008 6.96387 7
    endloop
  endfacet
  facet normal -0.200893 0.979613 4.70326e-008
    outer loop
      vertex -0.708008 6.96387 7
      vertex -1.05879 6.89193 3
      vertex -2.09375 6.67969 7
    endloop
  endfacet
  facet normal -0.200893 0.979613 0
    outer loop
      vertex -0.708008 6.96387 0
      vertex -1.05879 6.89193 3
      vertex -0.708008 6.96387 7
    endloop
  endfacet
  facet normal -0.200893 0.979613 0
    outer loop
      vertex -1.05879 6.89193 3
      vertex -0.708008 6.96387 0
      vertex -1.05879 6.89193 0
    endloop
  endfacet
  facet normal -0.200893 0.979613 3.87864e-008
    outer loop
      vertex -1.74825 6.75054 3
      vertex -2.09375 6.67969 7
      vertex -1.05879 6.89193 3
    endloop
  endfacet
  facet normal -0.200894 0.979613 0
    outer loop
      vertex -2.09375 6.67969 0
      vertex -1.74825 6.75054 3
      vertex -1.74825 6.75054 0
    endloop
  endfacet
  facet normal -0.200894 0.979613 0
    outer loop
      vertex -1.74825 6.75054 3
      vertex -2.09375 6.67969 0
      vertex -2.09375 6.67969 7
    endloop
  endfacet
  facet normal -0.393753 0.919216 -5.43785e-008
    outer loop
      vertex -2.09375 6.67969 7
      vertex -2.4338 6.53402 3
      vertex -3.39551 6.12207 7
    endloop
  endfacet
  facet normal -0.393753 0.919216 0
    outer loop
      vertex -2.09375 6.67969 0
      vertex -2.4338 6.53402 3
      vertex -2.09375 6.67969 7
    endloop
  endfacet
  facet normal -0.393753 0.919216 0
    outer loop
      vertex -2.4338 6.53402 3
      vertex -2.09375 6.67969 0
      vertex -2.4338 6.53402 0
    endloop
  endfacet
  facet normal -0.393752 0.919217 4.85138e-008
    outer loop
      vertex -3.06884 6.262 3
      vertex -3.39551 6.12207 7
      vertex -2.4338 6.53402 3
    endloop
  endfacet
  facet normal -0.393753 0.919216 0
    outer loop
      vertex -3.39551 6.12207 0
      vertex -3.06884 6.262 3
      vertex -3.06884 6.262 0
    endloop
  endfacet
  facet normal -0.393753 0.919216 0
    outer loop
      vertex -3.06884 6.262 3
      vertex -3.39551 6.12207 0
      vertex -3.39551 6.12207 7
    endloop
  endfacet
  facet normal -0.571469 0.820624 6.08841e-009
    outer loop
      vertex -3.39551 6.12207 7
      vertex -3.70035 5.90979 3
      vertex -4.55664 5.31348 7
    endloop
  endfacet
  facet normal -0.571469 0.820624 0
    outer loop
      vertex -3.39551 6.12207 0
      vertex -3.70035 5.90979 3
      vertex -3.39551 6.12207 7
    endloop
  endfacet
  facet normal -0.571469 0.820624 0
    outer loop
      vertex -3.70035 5.90979 3
      vertex -3.39551 6.12207 0
      vertex -3.70035 5.90979 0
    endloop
  endfacet
  facet normal -0.571469 0.820624 -1.53452e-008
    outer loop
      vertex -4.27557 5.50921 3
      vertex -4.55664 5.31348 7
      vertex -3.70035 5.90979 3
    endloop
  endfacet
  facet normal -0.571469 0.820624 0
    outer loop
      vertex -4.55664 5.31348 0
      vertex -4.27557 5.50921 3
      vertex -4.27557 5.50921 0
    endloop
  endfacet
  facet normal -0.571469 0.820624 0
    outer loop
      vertex -4.27557 5.50921 3
      vertex -4.55664 5.31348 0
      vertex -4.55664 5.31348 7
    endloop
  endfacet
  facet normal -0.724138 0.689655 0
    outer loop
      vertex -5.29501 4.53819 0
      vertex -5.5332 4.28809 0
      vertex -5.29501 4.53819 3
    endloop
  endfacet
  facet normal -0.724138 0.689655 0
    outer loop
      vertex -4.81486 5.04235 3
      vertex -4.55664 5.31348 0
      vertex -4.81486 5.04235 0
    endloop
  endfacet
  facet normal -0.724138 0.689655 0
    outer loop
      vertex -4.55664 5.31348 0
      vertex -4.81486 5.04235 3
      vertex -4.55664 5.31348 7
    endloop
  endfacet
  facet normal -0.724138 0.689655 -2.27639e-008
    outer loop
      vertex -5.29501 4.53819 3
      vertex -4.55664 5.31348 7
      vertex -4.81486 5.04235 3
    endloop
  endfacet
  facet normal -0.724138 0.689655 -1.64427e-008
    outer loop
      vertex -5.29501 4.53819 3
      vertex -5.5332 4.28809 7
      vertex -4.55664 5.31348 7
    endloop
  endfacet
  facet normal -0.724138 0.689655 0
    outer loop
      vertex -5.5332 4.28809 7
      vertex -5.29501 4.53819 3
      vertex -5.5332 4.28809 0
    endloop
  endfacet
  facet normal -0.848347 0.529441 0
    outer loop
      vertex -6.10299 3.37509 0
      vertex -6.28223 3.08789 0
      vertex -6.10299 3.37509 3
    endloop
  endfacet
  facet normal -0.848347 0.52944 0
    outer loop
      vertex -5.73491 3.96488 3
      vertex -5.5332 4.28809 0
      vertex -5.73491 3.96488 0
    endloop
  endfacet
  facet normal -0.848347 0.52944 0
    outer loop
      vertex -5.5332 4.28809 0
      vertex -5.73491 3.96488 3
      vertex -5.5332 4.28809 7
    endloop
  endfacet
  facet normal -0.848347 0.52944 -1.75757e-008
    outer loop
      vertex -6.10299 3.37509 3
      vertex -5.5332 4.28809 7
      vertex -5.73491 3.96488 3
    endloop
  endfacet
  facet normal -0.848347 0.52944 -1.53465e-008
    outer loop
      vertex -6.10299 3.37509 3
      vertex -6.28223 3.08789 7
      vertex -5.5332 4.28809 7
    endloop
  endfacet
  facet normal -0.848347 0.529441 0
    outer loop
      vertex -6.28223 3.08789 7
      vertex -6.10299 3.37509 3
      vertex -6.28223 3.08789 0
    endloop
  endfacet
  facet normal -0.937374 0.348325 0
    outer loop
      vertex -6.65864 2.07493 0
      vertex -6.77539 1.76074 0
      vertex -6.65864 2.07493 3
    endloop
  endfacet
  facet normal -0.937374 0.348325 0
    outer loop
      vertex -6.41603 2.7278 3
      vertex -6.28223 3.08789 0
      vertex -6.41603 2.7278 0
    endloop
  endfacet
  facet normal -0.937374 0.348325 0
    outer loop
      vertex -6.28223 3.08789 0
      vertex -6.41603 2.7278 3
      vertex -6.28223 3.08789 7
    endloop
  endfacet
  facet normal -0.937374 0.348325 3.79416e-008
    outer loop
      vertex -6.77539 1.76074 7
      vertex -6.41603 2.7278 3
      vertex -6.65864 2.07493 3
    endloop
  endfacet
  facet normal -0.937374 0.348325 6.70133e-009
    outer loop
      vertex -6.41603 2.7278 3
      vertex -6.77539 1.76074 7
      vertex -6.28223 3.08789 7
    endloop
  endfacet
  facet normal -0.937374 0.348325 0
    outer loop
      vertex -6.77539 1.76074 7
      vertex -6.65864 2.07493 3
      vertex -6.77539 1.76074 0
    endloop
  endfacet
  facet normal -0.988419 0.151747 0
    outer loop
      vertex -6.94097 0.682193 0
      vertex -6.99023 0.361328 0
      vertex -6.94097 0.682193 3
    endloop
  endfacet
  facet normal -0.98842 0.151746 0
    outer loop
      vertex -6.83403 1.37879 3
      vertex -6.77539 1.76074 0
      vertex -6.83403 1.37879 0
    endloop
  endfacet
  facet normal -0.98842 0.151746 0
    outer loop
      vertex -6.77539 1.76074 0
      vertex -6.83403 1.37879 3
      vertex -6.77539 1.76074 7
    endloop
  endfacet
  facet normal -0.988419 0.151746 -2.30257e-008
    outer loop
      vertex -6.99023 0.361328 7
      vertex -6.83403 1.37879 3
      vertex -6.94097 0.682193 3
    endloop
  endfacet
  facet normal -0.988419 0.151746 -4.21816e-008
    outer loop
      vertex -6.83403 1.37879 3
      vertex -6.99023 0.361328 7
      vertex -6.77539 1.76074 7
    endloop
  endfacet
  facet normal -0.988419 0.151747 0
    outer loop
      vertex -6.99023 0.361328 7
      vertex -6.94097 0.682193 3
      vertex -6.99023 0.361328 0
    endloop
  endfacet
  facet normal -0.998798 -0.0490081 0
    outer loop
      vertex -6.9368 -0.727738 0
      vertex -6.9209 -1.05176 0
      vertex -6.9368 -0.727738 3
    endloop
  endfacet
  facet normal -0.998798 -0.0490086 -0
    outer loop
      vertex -6.97144 -0.0218032 3
      vertex -6.99023 0.361328 0
      vertex -6.97144 -0.0218032 0
    endloop
  endfacet
  facet normal -0.998798 -0.0490086 0
    outer loop
      vertex -6.99023 0.361328 0
      vertex -6.97144 -0.0218032 3
      vertex -6.99023 0.361328 7
    endloop
  endfacet
  facet normal -0.998798 -0.0490078 2.975e-008
    outer loop
      vertex -6.9209 -1.05176 7
      vertex -6.97144 -0.0218032 3
      vertex -6.9368 -0.727738 3
    endloop
  endfacet
  facet normal -0.998798 -0.0490081 -4.66702e-008
    outer loop
      vertex -6.97144 -0.0218032 3
      vertex -6.9209 -1.05176 7
      vertex -6.99023 0.361328 7
    endloop
  endfacet
  facet normal -0.998798 -0.0490081 -0
    outer loop
      vertex -6.9209 -1.05176 7
      vertex -6.9368 -0.727738 3
      vertex -6.9209 -1.05176 0
    endloop
  endfacet
  facet normal -0.968331 -0.24967 0
    outer loop
      vertex -6.64838 -2.10872 0
      vertex -6.56738 -2.42285 0
      vertex -6.64838 -2.10872 3
    endloop
  endfacet
  facet normal -0.968331 -0.24967 -0
    outer loop
      vertex -6.82128 -1.43813 3
      vertex -6.9209 -1.05176 0
      vertex -6.82128 -1.43813 0
    endloop
  endfacet
  facet normal -0.968331 -0.24967 0
    outer loop
      vertex -6.9209 -1.05176 0
      vertex -6.82128 -1.43813 3
      vertex -6.9209 -1.05176 7
    endloop
  endfacet
  facet normal -0.968331 -0.249669 8.25946e-008
    outer loop
      vertex -6.56738 -2.42285 7
      vertex -6.82128 -1.43813 3
      vertex -6.64838 -2.10872 3
    endloop
  endfacet
  facet normal -0.968331 -0.249669 -2.32266e-008
    outer loop
      vertex -6.82128 -1.43813 3
      vertex -6.56738 -2.42285 7
      vertex -6.9209 -1.05176 7
    endloop
  endfacet
  facet normal -0.968331 -0.24967 -0
    outer loop
      vertex -6.56738 -2.42285 7
      vertex -6.64838 -2.10872 3
      vertex -6.56738 -2.42285 0
    endloop
  endfacet
  facet normal -0.898257 -0.439471 0
    outer loop
      vertex -6.08309 -3.41273 0
      vertex -5.94531 -3.69434 0
      vertex -6.08309 -3.41273 3
    endloop
  endfacet
  facet normal -0.898257 -0.43947 -0
    outer loop
      vertex -6.39234 -2.78063 3
      vertex -6.56738 -2.42285 0
      vertex -6.39234 -2.78063 0
    endloop
  endfacet
  facet normal -0.898257 -0.43947 0
    outer loop
      vertex -6.56738 -2.42285 0
      vertex -6.39234 -2.78063 3
      vertex -6.56738 -2.42285 7
    endloop
  endfacet
  facet normal -0.898257 -0.43947 6.02347e-008
    outer loop
      vertex -5.94531 -3.69434 7
      vertex -6.39234 -2.78063 3
      vertex -6.08309 -3.41273 3
    endloop
  endfacet
  facet normal -0.898257 -0.43947 4.69197e-008
    outer loop
      vertex -6.39234 -2.78063 3
      vertex -5.94531 -3.69434 7
      vertex -6.56738 -2.42285 7
    endloop
  endfacet
  facet normal -0.898257 -0.439471 -0
    outer loop
      vertex -5.94531 -3.69434 7
      vertex -6.08309 -3.41273 3
      vertex -5.94531 -3.69434 0
    endloop
  endfacet
  facet normal -0.791725 -0.610877 0
    outer loop
      vertex -5.26932 -4.57045 0
      vertex -5.08105 -4.81445 0
      vertex -5.26932 -4.57045 3
    endloop
  endfacet
  facet normal -0.791725 -0.610878 -0
    outer loop
      vertex -5.70363 -4.00757 3
      vertex -5.94531 -3.69434 0
      vertex -5.70363 -4.00757 0
    endloop
  endfacet
  facet normal -0.791725 -0.610878 0
    outer loop
      vertex -5.94531 -3.69434 0
      vertex -5.70363 -4.00757 3
      vertex -5.94531 -3.69434 7
    endloop
  endfacet
  facet normal -0.791725 -0.610878 -3.57725e-008
    outer loop
      vertex -5.08105 -4.81445 7
      vertex -5.70363 -4.00757 3
      vertex -5.26932 -4.57045 3
    endloop
  endfacet
  facet normal -0.791725 -0.610878 -3.1762e-008
    outer loop
      vertex -5.70363 -4.00757 3
      vertex -5.08105 -4.81445 7
      vertex -5.94531 -3.69434 7
    endloop
  endfacet
  facet normal -0.791725 -0.610877 -0
    outer loop
      vertex -5.08105 -4.81445 7
      vertex -5.26932 -4.57045 3
      vertex -5.08105 -4.81445 0
    endloop
  endfacet
  facet normal -0.652721 -0.757598 -1.49699e-008
    outer loop
      vertex -5.08105 -4.81445 7
      vertex -4.77352 -5.07942 3
      vertex -4.00879 -5.73828 7
    endloop
  endfacet
  facet normal -0.652721 -0.757598 0
    outer loop
      vertex -5.08105 -4.81445 0
      vertex -4.77352 -5.07942 3
      vertex -5.08105 -4.81445 7
    endloop
  endfacet
  facet normal -0.652721 -0.757598 -0
    outer loop
      vertex -4.77352 -5.07942 3
      vertex -5.08105 -4.81445 0
      vertex -4.77352 -5.07942 0
    endloop
  endfacet
  facet normal -0.652721 -0.757598 6.14487e-008
    outer loop
      vertex -4.24344 -5.53612 3
      vertex -4.00879 -5.73828 7
      vertex -4.77352 -5.07942 3
    endloop
  endfacet
  facet normal -0.652721 -0.757599 0
    outer loop
      vertex -4.00879 -5.73828 0
      vertex -4.24344 -5.53612 3
      vertex -4.24344 -5.53612 0
    endloop
  endfacet
  facet normal -0.652721 -0.757599 0
    outer loop
      vertex -4.24344 -5.53612 3
      vertex -4.00879 -5.73828 0
      vertex -4.00879 -5.73828 7
    endloop
  endfacet
  facet normal -0.487048 -0.873375 -3.09218e-008
    outer loop
      vertex -4.00879 -5.73828 7
      vertex -3.64943 -5.93868 3
      vertex -2.77246 -6.42773 7
    endloop
  endfacet
  facet normal -0.487048 -0.873375 0
    outer loop
      vertex -4.00879 -5.73828 0
      vertex -3.64943 -5.93868 3
      vertex -4.00879 -5.73828 7
    endloop
  endfacet
  facet normal -0.487048 -0.873375 -0
    outer loop
      vertex -3.64943 -5.93868 3
      vertex -4.00879 -5.73828 0
      vertex -3.64943 -5.93868 0
    endloop
  endfacet
  facet normal -0.487048 -0.873375 -3.97784e-008
    outer loop
      vertex -3.03869 -6.27927 3
      vertex -2.77246 -6.42773 7
      vertex -3.64943 -5.93868 3
    endloop
  endfacet
  facet normal -0.487049 -0.873375 0
    outer loop
      vertex -2.77246 -6.42773 0
      vertex -3.03869 -6.27927 3
      vertex -3.03869 -6.27927 0
    endloop
  endfacet
  facet normal -0.487049 -0.873375 0
    outer loop
      vertex -3.03869 -6.27927 3
      vertex -2.77246 -6.42773 0
      vertex -2.77246 -6.42773 7
    endloop
  endfacet
  facet normal 0.944654 -0.32807 0
    outer loop
      vertex -2.63477 -6.03125 7
      vertex -2.76074 -6.394 3
      vertex -2.63477 -6.03125 3
    endloop
  endfacet
  facet normal 0.944654 -0.328069 -2.27442e-008
    outer loop
      vertex -2.77246 -6.42773 7
      vertex -2.76074 -6.394 3
      vertex -2.63477 -6.03125 7
    endloop
  endfacet
  facet normal 0.944654 -0.328067 0
    outer loop
      vertex -2.77246 -6.42773 0
      vertex -2.76074 -6.394 3
      vertex -2.77246 -6.42773 7
    endloop
  endfacet
  facet normal 0.944654 -0.328067 0
    outer loop
      vertex -2.76074 -6.394 3
      vertex -2.77246 -6.42773 0
      vertex -2.76074 -6.394 0
    endloop
  endfacet
  facet normal 0.829666 -0.55826 0
    outer loop
      vertex -2.63477 -6.03125 7
      vertex -2.3877 -5.66406 3
      vertex -2.3877 -5.66406 7
    endloop
  endfacet
  facet normal 0.829666 -0.55826 0
    outer loop
      vertex -2.3877 -5.66406 3
      vertex -2.63477 -6.03125 7
      vertex -2.63477 -6.03125 3
    endloop
  endfacet
  facet normal 0.684078 -0.729409 0
    outer loop
      vertex -2.3877 -5.66406 3
      vertex -2.04199 -5.33984 7
      vertex -2.3877 -5.66406 7
    endloop
  endfacet
  facet normal 0.684078 -0.729409 0
    outer loop
      vertex -2.04199 -5.33984 7
      vertex -2.3877 -5.66406 3
      vertex -2.04199 -5.33984 3
    endloop
  endfacet
  facet normal 0.526884 -0.849937 0
    outer loop
      vertex -2.04199 -5.33984 3
      vertex -1.61035 -5.07227 7
      vertex -2.04199 -5.33984 7
    endloop
  endfacet
  facet normal 0.526884 -0.849937 0
    outer loop
      vertex -1.61035 -5.07227 7
      vertex -2.04199 -5.33984 3
      vertex -1.61035 -5.07227 3
    endloop
  endfacet
  facet normal 0.371391 -0.928477 0
    outer loop
      vertex -1.61035 -5.07227 3
      vertex -1.1123 -4.87305 7
      vertex -1.61035 -5.07227 7
    endloop
  endfacet
  facet normal 0.371391 -0.928477 0
    outer loop
      vertex -1.1123 -4.87305 7
      vertex -1.61035 -5.07227 3
      vertex -1.1123 -4.87305 3
    endloop
  endfacet
  facet normal 0.220637 -0.975356 0
    outer loop
      vertex -1.1123 -4.87305 3
      vertex -0.568359 -4.75 7
      vertex -1.1123 -4.87305 7
    endloop
  endfacet
  facet normal 0.220637 -0.975356 0
    outer loop
      vertex -0.568359 -4.75 7
      vertex -1.1123 -4.87305 3
      vertex -0.568359 -4.75 3
    endloop
  endfacet
  facet normal 0.0736823 -0.997282 0
    outer loop
      vertex -0.568359 -4.75 3
      vertex 0 -4.70801 7
      vertex -0.568359 -4.75 7
    endloop
  endfacet
  facet normal 0.0736823 -0.997282 0
    outer loop
      vertex 0 -4.70801 7
      vertex -0.568359 -4.75 3
      vertex 0 -4.70801 3
    endloop
  endfacet
  facet normal -0.0736823 -0.997282 0
    outer loop
      vertex 0 -4.70801 3
      vertex 0.568359 -4.75 7
      vertex 0 -4.70801 7
    endloop
  endfacet
  facet normal -0.0736823 -0.997282 -0
    outer loop
      vertex 0.568359 -4.75 7
      vertex 0 -4.70801 3
      vertex 0.568359 -4.75 3
    endloop
  endfacet
  facet normal -0.220637 -0.975356 0
    outer loop
      vertex 0.568359 -4.75 3
      vertex 1.1123 -4.87305 7
      vertex 0.568359 -4.75 7
    endloop
  endfacet
  facet normal -0.220637 -0.975356 -0
    outer loop
      vertex 1.1123 -4.87305 7
      vertex 0.568359 -4.75 3
      vertex 1.1123 -4.87305 3
    endloop
  endfacet
  facet normal -0.371391 -0.928477 0
    outer loop
      vertex 1.1123 -4.87305 3
      vertex 1.61035 -5.07227 7
      vertex 1.1123 -4.87305 7
    endloop
  endfacet
  facet normal -0.371391 -0.928477 -0
    outer loop
      vertex 1.61035 -5.07227 7
      vertex 1.1123 -4.87305 3
      vertex 1.61035 -5.07227 3
    endloop
  endfacet
  facet normal -0.526884 -0.849937 0
    outer loop
      vertex 1.61035 -5.07227 3
      vertex 2.04199 -5.33984 7
      vertex 1.61035 -5.07227 7
    endloop
  endfacet
  facet normal -0.526884 -0.849937 -0
    outer loop
      vertex 2.04199 -5.33984 7
      vertex 1.61035 -5.07227 3
      vertex 2.04199 -5.33984 3
    endloop
  endfacet
  facet normal -0.684078 -0.729409 0
    outer loop
      vertex 2.04199 -5.33984 3
      vertex 2.3877 -5.66406 7
      vertex 2.04199 -5.33984 7
    endloop
  endfacet
  facet normal -0.684078 -0.729409 -0
    outer loop
      vertex 2.3877 -5.66406 7
      vertex 2.04199 -5.33984 3
      vertex 2.3877 -5.66406 3
    endloop
  endfacet
  facet normal -0.829666 -0.55826 0
    outer loop
      vertex 2.63477 -6.03125 3
      vertex 2.3877 -5.66406 7
      vertex 2.3877 -5.66406 3
    endloop
  endfacet
  facet normal -0.829666 -0.55826 0
    outer loop
      vertex 2.3877 -5.66406 7
      vertex 2.63477 -6.03125 3
      vertex 2.63477 -6.03125 7
    endloop
  endfacet
  facet normal -0.944654 -0.32807 0
    outer loop
      vertex 2.76074 -6.394 3
      vertex 2.63477 -6.03125 7
      vertex 2.63477 -6.03125 3
    endloop
  endfacet
  facet normal -0.944654 -0.328069 -2.27442e-008
    outer loop
      vertex 2.76074 -6.394 3
      vertex 2.77246 -6.42773 7
      vertex 2.63477 -6.03125 7
    endloop
  endfacet
  facet normal -0.944654 -0.328067 -0
    outer loop
      vertex 2.77246 -6.42773 7
      vertex 2.76074 -6.394 3
      vertex 2.77246 -6.42773 0
    endloop
  endfacet
  facet normal -0.944654 -0.328067 0
    outer loop
      vertex 2.76074 -6.394 0
      vertex 2.77246 -6.42773 0
      vertex 2.76074 -6.394 3
    endloop
  endfacet
  facet normal 0.487048 -0.873375 -3.97784e-008
    outer loop
      vertex 3.64943 -5.93868 3
      vertex 2.77246 -6.42773 7
      vertex 3.03869 -6.27927 3
    endloop
  endfacet
  facet normal 0.487049 -0.873375 0
    outer loop
      vertex 2.77246 -6.42773 0
      vertex 3.03869 -6.27927 3
      vertex 2.77246 -6.42773 7
    endloop
  endfacet
  facet normal 0.487049 -0.873375 0
    outer loop
      vertex 3.03869 -6.27927 3
      vertex 2.77246 -6.42773 0
      vertex 3.03869 -6.27927 0
    endloop
  endfacet
  facet normal 0.487048 -0.873375 -3.09218e-008
    outer loop
      vertex 2.77246 -6.42773 7
      vertex 3.64943 -5.93868 3
      vertex 4.00879 -5.73828 7
    endloop
  endfacet
  facet normal 0.487048 -0.873375 0
    outer loop
      vertex 4.00879 -5.73828 0
      vertex 3.64943 -5.93868 3
      vertex 3.64943 -5.93868 0
    endloop
  endfacet
  facet normal 0.487048 -0.873375 0
    outer loop
      vertex 3.64943 -5.93868 3
      vertex 4.00879 -5.73828 0
      vertex 4.00879 -5.73828 7
    endloop
  endfacet
  facet normal -0.866025 -0.5 0
    outer loop
      vertex 4 0 0
      vertex 2 3.4641 7
      vertex 2 3.4641 0
    endloop
  endfacet
  facet normal -0.866025 -0.5 0
    outer loop
      vertex 2 3.4641 7
      vertex 4 0 0
      vertex 4 0 7
    endloop
  endfacet
  facet normal 0.866025 -0.5 0
    outer loop
      vertex -4 0 7
      vertex -2 3.4641 0
      vertex -2 3.4641 7
    endloop
  endfacet
  facet normal 0.866025 -0.5 0
    outer loop
      vertex -2 3.4641 0
      vertex -4 0 7
      vertex -4 0 0
    endloop
  endfacet
  facet normal 0 -1 0
    outer loop
      vertex -2 3.4641 0
      vertex 2 3.4641 7
      vertex -2 3.4641 7
    endloop
  endfacet
  facet normal 0 -1 -0
    outer loop
      vertex 2 3.4641 7
      vertex -2 3.4641 0
      vertex 2 3.4641 0
    endloop
  endfacet
  facet normal -0.866025 0.5 0
    outer loop
      vertex 2 -3.4641 0
      vertex 4 0 7
      vertex 4 0 0
    endloop
  endfacet
  facet normal -0.866025 0.5 0
    outer loop
      vertex 4 0 7
      vertex 2 -3.4641 0
      vertex 2 -3.4641 7
    endloop
  endfacet
  facet normal 0 1 -0
    outer loop
      vertex 2 -3.4641 0
      vertex -2 -3.4641 7
      vertex 2 -3.4641 7
    endloop
  endfacet
  facet normal 0 1 0
    outer loop
      vertex -2 -3.4641 7
      vertex 2 -3.4641 0
      vertex -2 -3.4641 0
    endloop
  endfacet
  facet normal 0.866025 0.5 0
    outer loop
      vertex -2 -3.4641 7
      vertex -4 0 0
      vertex -4 0 7
    endloop
  endfacet
  facet normal 0.866025 0.5 0
    outer loop
      vertex -4 0 0
      vertex -2 -3.4641 7
      vertex -2 -3.4641 0
    endloop
  endfacet
endsolid OpenSCAD_Model
