solid OpenSCAD_Model
  facet normal -1 0 0
    outer loop
      vertex 0 0 0
      vertex 0 109.6 65.6
      vertex 0 109.6 0
    endloop
  endfacet
  facet normal -1 -0 0
    outer loop
      vertex 0 109.6 65.6
      vertex 0 0 0
      vertex 0 0 65.6
    endloop
  endfacet
  facet normal -0 0 1
    outer loop
      vertex 23.6 23.2 65.6
      vertex 28.6 21.6 65.6
      vertex 28.6 23.2 65.6
    endloop
  endfacet
  facet normal 0 0 1
    outer loop
      vertex 28.6 21.6 65.6
      vertex 23.6 23.2 65.6
      vertex 23.6 21.6 65.6
    endloop
  endfacet
  facet normal -0 0 1
    outer loop
      vertex 23.6 44.8 65.6
      vertex 28.6 43.2 65.6
      vertex 28.6 44.8 65.6
    endloop
  endfacet
  facet normal 0 0 1
    outer loop
      vertex 28.6 43.2 65.6
      vertex 23.6 44.8 65.6
      vertex 23.6 43.2 65.6
    endloop
  endfacet
  facet normal -0 0 1
    outer loop
      vertex 23.6 66.4 65.6
      vertex 28.6 64.8 65.6
      vertex 28.6 66.4 65.6
    endloop
  endfacet
  facet normal 0 0 1
    outer loop
      vertex 28.6 64.8 65.6
      vertex 23.6 66.4 65.6
      vertex 23.6 64.8 65.6
    endloop
  endfacet
  facet normal -0 0 1
    outer loop
      vertex 23.6 88 65.6
      vertex 28.6 86.4 65.6
      vertex 28.6 88 65.6
    endloop
  endfacet
  facet normal 0 0 1
    outer loop
      vertex 28.6 86.4 65.6
      vertex 23.6 88 65.6
      vertex 23.6 86.4 65.6
    endloop
  endfacet
  facet normal 0 0 1
    outer loop
      vertex 28.6 88 65.6
      vertex 30.2 109.6 65.6
      vertex 28.6 108 65.6
    endloop
  endfacet
  facet normal 0 0 1
    outer loop
      vertex 30.2 109.6 65.6
      vertex 1.6 108 65.6
      vertex 28.6 108 65.6
    endloop
  endfacet
  facet normal 0 0 1
    outer loop
      vertex 0 109.6 65.6
      vertex 1.6 88 65.6
      vertex 1.6 108 65.6
    endloop
  endfacet
  facet normal 0 0 1
    outer loop
      vertex 1.6 88 65.6
      vertex 0 109.6 65.6
      vertex 1.6 86.4 65.6
    endloop
  endfacet
  facet normal 0 0 1
    outer loop
      vertex 1.6 86.4 65.6
      vertex 0 109.6 65.6
      vertex 1.6 66.4 65.6
    endloop
  endfacet
  facet normal 0 0 1
    outer loop
      vertex 1.6 66.4 65.6
      vertex 0 109.6 65.6
      vertex 1.6 64.8 65.6
    endloop
  endfacet
  facet normal 0 0 1
    outer loop
      vertex 1.6 64.8 65.6
      vertex 0 109.6 65.6
      vertex 1.6 44.8 65.6
    endloop
  endfacet
  facet normal 0 0 1
    outer loop
      vertex 0 0 65.6
      vertex 1.6 44.8 65.6
      vertex 0 109.6 65.6
    endloop
  endfacet
  facet normal 0 0 1
    outer loop
      vertex 1.6 44.8 65.6
      vertex 0 0 65.6
      vertex 1.6 43.2 65.6
    endloop
  endfacet
  facet normal 0 0 1
    outer loop
      vertex 1.6 43.2 65.6
      vertex 0 0 65.6
      vertex 1.6 23.2 65.6
    endloop
  endfacet
  facet normal 0 0 1
    outer loop
      vertex 1.6 23.2 65.6
      vertex 0 0 65.6
      vertex 1.6 21.6 65.6
    endloop
  endfacet
  facet normal -0 0 1
    outer loop
      vertex 0 109.6 65.6
      vertex 1.6 108 65.6
      vertex 30.2 109.6 65.6
    endloop
  endfacet
  facet normal 0 0 1
    outer loop
      vertex 28.6 86.4 65.6
      vertex 30.2 109.6 65.6
      vertex 28.6 88 65.6
    endloop
  endfacet
  facet normal 0 0 1
    outer loop
      vertex 28.6 66.4 65.6
      vertex 30.2 109.6 65.6
      vertex 28.6 86.4 65.6
    endloop
  endfacet
  facet normal 0 0 1
    outer loop
      vertex 28.6 64.8 65.6
      vertex 30.2 109.6 65.6
      vertex 28.6 66.4 65.6
    endloop
  endfacet
  facet normal 0 0 1
    outer loop
      vertex 30.2 109.6 65.6
      vertex 28.6 64.8 65.6
      vertex 30.2 0 65.6
    endloop
  endfacet
  facet normal -0 0 1
    outer loop
      vertex 28.6 44.8 65.6
      vertex 30.2 0 65.6
      vertex 28.6 64.8 65.6
    endloop
  endfacet
  facet normal -0 0 1
    outer loop
      vertex 28.6 43.2 65.6
      vertex 30.2 0 65.6
      vertex 28.6 44.8 65.6
    endloop
  endfacet
  facet normal -0 0 1
    outer loop
      vertex 28.6 23.2 65.6
      vertex 30.2 0 65.6
      vertex 28.6 43.2 65.6
    endloop
  endfacet
  facet normal -0 0 1
    outer loop
      vertex 28.6 21.6 65.6
      vertex 30.2 0 65.6
      vertex 28.6 23.2 65.6
    endloop
  endfacet
  facet normal -0 0 1
    outer loop
      vertex 28.6 1.6 65.6
      vertex 30.2 0 65.6
      vertex 28.6 21.6 65.6
    endloop
  endfacet
  facet normal -0 0 1
    outer loop
      vertex 1.6 1.6 65.6
      vertex 30.2 0 65.6
      vertex 28.6 1.6 65.6
    endloop
  endfacet
  facet normal 0 0 1
    outer loop
      vertex 1.6 1.6 65.6
      vertex 0 0 65.6
      vertex 30.2 0 65.6
    endloop
  endfacet
  facet normal 0 0 1
    outer loop
      vertex 1.6 21.6 65.6
      vertex 0 0 65.6
      vertex 1.6 1.6 65.6
    endloop
  endfacet
  facet normal -0 0 1
    outer loop
      vertex 1.6 88 65.6
      vertex 6.6 86.4 65.6
      vertex 6.6 88 65.6
    endloop
  endfacet
  facet normal 0 0 1
    outer loop
      vertex 6.6 86.4 65.6
      vertex 1.6 88 65.6
      vertex 1.6 86.4 65.6
    endloop
  endfacet
  facet normal -0 0 1
    outer loop
      vertex 1.6 66.4 65.6
      vertex 6.6 64.8 65.6
      vertex 6.6 66.4 65.6
    endloop
  endfacet
  facet normal 0 0 1
    outer loop
      vertex 6.6 64.8 65.6
      vertex 1.6 66.4 65.6
      vertex 1.6 64.8 65.6
    endloop
  endfacet
  facet normal -0 0 1
    outer loop
      vertex 1.6 44.8 65.6
      vertex 6.6 43.2 65.6
      vertex 6.6 44.8 65.6
    endloop
  endfacet
  facet normal 0 0 1
    outer loop
      vertex 6.6 43.2 65.6
      vertex 1.6 44.8 65.6
      vertex 1.6 43.2 65.6
    endloop
  endfacet
  facet normal -0 0 1
    outer loop
      vertex 1.6 23.2 65.6
      vertex 6.6 21.6 65.6
      vertex 6.6 23.2 65.6
    endloop
  endfacet
  facet normal 0 0 1
    outer loop
      vertex 6.6 21.6 65.6
      vertex 1.6 23.2 65.6
      vertex 1.6 21.6 65.6
    endloop
  endfacet
  facet normal 1 -0 0
    outer loop
      vertex 30.2 0 65.6
      vertex 30.2 109.6 0
      vertex 30.2 109.6 65.6
    endloop
  endfacet
  facet normal 1 0 0
    outer loop
      vertex 30.2 109.6 0
      vertex 30.2 0 65.6
      vertex 30.2 0 0
    endloop
  endfacet
  facet normal 0 0 -1
    outer loop
      vertex 1.6 86.4 0
      vertex 28.6 96.4 0
      vertex 28.6 86.4 0
    endloop
  endfacet
  facet normal -0 0 -1
    outer loop
      vertex 28.6 96.4 0
      vertex 1.6 86.4 0
      vertex 1.6 96.4 0
    endloop
  endfacet
  facet normal 0 0 -1
    outer loop
      vertex 1.6 64.8 0
      vertex 28.6 74.8 0
      vertex 28.6 64.8 0
    endloop
  endfacet
  facet normal -0 0 -1
    outer loop
      vertex 28.6 74.8 0
      vertex 1.6 64.8 0
      vertex 1.6 74.8 0
    endloop
  endfacet
  facet normal 0 0 -1
    outer loop
      vertex 1.6 43.2 0
      vertex 28.6 53.2 0
      vertex 28.6 43.2 0
    endloop
  endfacet
  facet normal -0 0 -1
    outer loop
      vertex 28.6 53.2 0
      vertex 1.6 43.2 0
      vertex 1.6 53.2 0
    endloop
  endfacet
  facet normal 0 0 -1
    outer loop
      vertex 1.6 21.6 0
      vertex 28.6 31.6 0
      vertex 28.6 21.6 0
    endloop
  endfacet
  facet normal -0 0 -1
    outer loop
      vertex 28.6 31.6 0
      vertex 1.6 21.6 0
      vertex 1.6 31.6 0
    endloop
  endfacet
  facet normal 0 0 -1
    outer loop
      vertex 28.6 21.6 0
      vertex 30.2 0 0
      vertex 28.6 10 0
    endloop
  endfacet
  facet normal 0 0 -1
    outer loop
      vertex 30.2 0 0
      vertex 1.6 10 0
      vertex 28.6 10 0
    endloop
  endfacet
  facet normal 0 0 -1
    outer loop
      vertex 0 0 0
      vertex 1.6 21.6 0
      vertex 1.6 10 0
    endloop
  endfacet
  facet normal -0 0 -1
    outer loop
      vertex 1.6 21.6 0
      vertex 0 0 0
      vertex 1.6 31.6 0
    endloop
  endfacet
  facet normal -0 0 -1
    outer loop
      vertex 1.6 31.6 0
      vertex 0 0 0
      vertex 1.6 43.2 0
    endloop
  endfacet
  facet normal -0 0 -1
    outer loop
      vertex 1.6 43.2 0
      vertex 0 0 0
      vertex 1.6 53.2 0
    endloop
  endfacet
  facet normal -0 0 -1
    outer loop
      vertex 1.6 53.2 0
      vertex 0 0 0
      vertex 1.6 64.8 0
    endloop
  endfacet
  facet normal 0 0 -1
    outer loop
      vertex 0 109.6 0
      vertex 1.6 64.8 0
      vertex 0 0 0
    endloop
  endfacet
  facet normal 0 0 -1
    outer loop
      vertex 1.6 64.8 0
      vertex 0 109.6 0
      vertex 1.6 74.8 0
    endloop
  endfacet
  facet normal 0 0 -1
    outer loop
      vertex 1.6 74.8 0
      vertex 0 109.6 0
      vertex 1.6 86.4 0
    endloop
  endfacet
  facet normal 0 0 -1
    outer loop
      vertex 1.6 86.4 0
      vertex 0 109.6 0
      vertex 1.6 96.4 0
    endloop
  endfacet
  facet normal 0 0 -1
    outer loop
      vertex 0 0 0
      vertex 1.6 10 0
      vertex 30.2 0 0
    endloop
  endfacet
  facet normal 0 0 -1
    outer loop
      vertex 28.6 31.6 0
      vertex 30.2 0 0
      vertex 28.6 21.6 0
    endloop
  endfacet
  facet normal 0 0 -1
    outer loop
      vertex 28.6 43.2 0
      vertex 30.2 0 0
      vertex 28.6 31.6 0
    endloop
  endfacet
  facet normal 0 0 -1
    outer loop
      vertex 30.2 0 0
      vertex 28.6 43.2 0
      vertex 30.2 109.6 0
    endloop
  endfacet
  facet normal 0 0 -1
    outer loop
      vertex 28.6 53.2 0
      vertex 30.2 109.6 0
      vertex 28.6 43.2 0
    endloop
  endfacet
  facet normal 0 0 -1
    outer loop
      vertex 28.6 64.8 0
      vertex 30.2 109.6 0
      vertex 28.6 53.2 0
    endloop
  endfacet
  facet normal 0 0 -1
    outer loop
      vertex 28.6 74.8 0
      vertex 30.2 109.6 0
      vertex 28.6 64.8 0
    endloop
  endfacet
  facet normal 0 0 -1
    outer loop
      vertex 28.6 86.4 0
      vertex 30.2 109.6 0
      vertex 28.6 74.8 0
    endloop
  endfacet
  facet normal 0 0 -1
    outer loop
      vertex 28.6 96.4 0
      vertex 30.2 109.6 0
      vertex 28.6 86.4 0
    endloop
  endfacet
  facet normal 0 0 -1
    outer loop
      vertex 28.6 108 0
      vertex 30.2 109.6 0
      vertex 28.6 96.4 0
    endloop
  endfacet
  facet normal 0 0 -1
    outer loop
      vertex 1.6 108 0
      vertex 30.2 109.6 0
      vertex 28.6 108 0
    endloop
  endfacet
  facet normal 0 0 -1
    outer loop
      vertex 1.6 108 0
      vertex 0 109.6 0
      vertex 30.2 109.6 0
    endloop
  endfacet
  facet normal 0 0 -1
    outer loop
      vertex 1.6 96.4 0
      vertex 0 109.6 0
      vertex 1.6 108 0
    endloop
  endfacet
  facet normal 0 -1 0
    outer loop
      vertex 0 0 0
      vertex 30.2 0 65.6
      vertex 0 0 65.6
    endloop
  endfacet
  facet normal 0 -1 -0
    outer loop
      vertex 30.2 0 65.6
      vertex 0 0 0
      vertex 30.2 0 0
    endloop
  endfacet
  facet normal 0 1 0
    outer loop
      vertex 28.6 23.2 65.6
      vertex 23.6 23.2 6.6
      vertex 23.6 23.2 65.6
    endloop
  endfacet
  facet normal 0 1 0
    outer loop
      vertex 23.6 23.2 6.6
      vertex 28.6 23.2 1.6
      vertex 6.6 23.2 6.6
    endloop
  endfacet
  facet normal 0 1 -0
    outer loop
      vertex 28.6 23.2 1.6
      vertex 23.6 23.2 6.6
      vertex 28.6 23.2 65.6
    endloop
  endfacet
  facet normal 0 1 -0
    outer loop
      vertex 6.6 23.2 6.6
      vertex 1.6 23.2 65.6
      vertex 6.6 23.2 65.6
    endloop
  endfacet
  facet normal 0 1 0
    outer loop
      vertex 6.6 23.2 6.6
      vertex 1.6 23.2 1.6
      vertex 1.6 23.2 65.6
    endloop
  endfacet
  facet normal 0 1 0
    outer loop
      vertex 1.6 23.2 1.6
      vertex 6.6 23.2 6.6
      vertex 28.6 23.2 1.6
    endloop
  endfacet
  facet normal 1 0 0
    outer loop
      vertex 1.6 21.6 65.6
      vertex 1.6 10 1.6
      vertex 1.6 21.6 0
    endloop
  endfacet
  facet normal 1 -0 0
    outer loop
      vertex 1.6 1.6 65.6
      vertex 1.6 10 1.6
      vertex 1.6 21.6 65.6
    endloop
  endfacet
  facet normal 1 0 0
    outer loop
      vertex 1.6 10 1.6
      vertex 1.6 1.6 65.6
      vertex 1.6 1.6 1.6
    endloop
  endfacet
  facet normal 1 0 0
    outer loop
      vertex 1.6 21.6 0
      vertex 1.6 10 1.6
      vertex 1.6 10 0
    endloop
  endfacet
  facet normal -1 0 0
    outer loop
      vertex 28.6 10 1.6
      vertex 28.6 21.6 0
      vertex 28.6 10 0
    endloop
  endfacet
  facet normal -1 0 0
    outer loop
      vertex 28.6 21.6 0
      vertex 28.6 10 1.6
      vertex 28.6 21.6 65.6
    endloop
  endfacet
  facet normal -1 0 0
    outer loop
      vertex 28.6 1.6 65.6
      vertex 28.6 10 1.6
      vertex 28.6 1.6 1.6
    endloop
  endfacet
  facet normal -1 0 0
    outer loop
      vertex 28.6 10 1.6
      vertex 28.6 1.6 65.6
      vertex 28.6 21.6 65.6
    endloop
  endfacet
  facet normal 0 -1 0
    outer loop
      vertex 1.6 21.6 65.6
      vertex 6.6 21.6 6.6
      vertex 6.6 21.6 65.6
    endloop
  endfacet
  facet normal 0 -1 -0
    outer loop
      vertex 6.6 21.6 6.6
      vertex 1.6 21.6 0
      vertex 23.6 21.6 6.6
    endloop
  endfacet
  facet normal 0 -1 0
    outer loop
      vertex 1.6 21.6 0
      vertex 6.6 21.6 6.6
      vertex 1.6 21.6 65.6
    endloop
  endfacet
  facet normal 0 -1 0
    outer loop
      vertex 23.6 21.6 6.6
      vertex 28.6 21.6 65.6
      vertex 23.6 21.6 65.6
    endloop
  endfacet
  facet normal 0 -1 0
    outer loop
      vertex 23.6 21.6 6.6
      vertex 28.6 21.6 0
      vertex 28.6 21.6 65.6
    endloop
  endfacet
  facet normal 0 -1 0
    outer loop
      vertex 28.6 21.6 0
      vertex 23.6 21.6 6.6
      vertex 1.6 21.6 0
    endloop
  endfacet
  facet normal -0 0 1
    outer loop
      vertex 1.6 10 1.6
      vertex 28.6 1.6 1.6
      vertex 28.6 10 1.6
    endloop
  endfacet
  facet normal 0 0 1
    outer loop
      vertex 28.6 1.6 1.6
      vertex 1.6 10 1.6
      vertex 1.6 1.6 1.6
    endloop
  endfacet
  facet normal 0 1 -0
    outer loop
      vertex 28.6 1.6 1.6
      vertex 1.6 1.6 65.6
      vertex 28.6 1.6 65.6
    endloop
  endfacet
  facet normal 0 1 0
    outer loop
      vertex 1.6 1.6 65.6
      vertex 28.6 1.6 1.6
      vertex 1.6 1.6 1.6
    endloop
  endfacet
  facet normal 0 1 -0
    outer loop
      vertex 28.6 10 0
      vertex 1.6 10 1.6
      vertex 28.6 10 1.6
    endloop
  endfacet
  facet normal 0 1 0
    outer loop
      vertex 1.6 10 1.6
      vertex 28.6 10 0
      vertex 1.6 10 0
    endloop
  endfacet
  facet normal 1 -0 0
    outer loop
      vertex 6.6 21.6 65.6
      vertex 6.6 23.2 6.6
      vertex 6.6 23.2 65.6
    endloop
  endfacet
  facet normal 1 0 0
    outer loop
      vertex 6.6 23.2 6.6
      vertex 6.6 21.6 65.6
      vertex 6.6 21.6 6.6
    endloop
  endfacet
  facet normal -1 0 0
    outer loop
      vertex 23.6 21.6 6.6
      vertex 23.6 23.2 65.6
      vertex 23.6 23.2 6.6
    endloop
  endfacet
  facet normal -1 -0 0
    outer loop
      vertex 23.6 23.2 65.6
      vertex 23.6 21.6 6.6
      vertex 23.6 21.6 65.6
    endloop
  endfacet
  facet normal 0 0 1
    outer loop
      vertex 23.6 23.2 6.6
      vertex 6.6 23.2 6.6
      vertex 23.6 21.6 6.6
    endloop
  endfacet
  facet normal 0 0 1
    outer loop
      vertex 23.6 21.6 6.6
      vertex 6.6 23.2 6.6
      vertex 6.6 21.6 6.6
    endloop
  endfacet
  facet normal 0 1 0
    outer loop
      vertex 28.6 44.8 65.6
      vertex 23.6 44.8 6.6
      vertex 23.6 44.8 65.6
    endloop
  endfacet
  facet normal 0 1 0
    outer loop
      vertex 23.6 44.8 6.6
      vertex 28.6 44.8 1.6
      vertex 6.6 44.8 6.6
    endloop
  endfacet
  facet normal 0 1 -0
    outer loop
      vertex 28.6 44.8 1.6
      vertex 23.6 44.8 6.6
      vertex 28.6 44.8 65.6
    endloop
  endfacet
  facet normal 0 1 -0
    outer loop
      vertex 6.6 44.8 6.6
      vertex 1.6 44.8 65.6
      vertex 6.6 44.8 65.6
    endloop
  endfacet
  facet normal 0 1 0
    outer loop
      vertex 6.6 44.8 6.6
      vertex 1.6 44.8 1.6
      vertex 1.6 44.8 65.6
    endloop
  endfacet
  facet normal 0 1 0
    outer loop
      vertex 1.6 44.8 1.6
      vertex 6.6 44.8 6.6
      vertex 28.6 44.8 1.6
    endloop
  endfacet
  facet normal 1 0 0
    outer loop
      vertex 1.6 43.2 65.6
      vertex 1.6 31.6 1.6
      vertex 1.6 43.2 0
    endloop
  endfacet
  facet normal 1 -0 0
    outer loop
      vertex 1.6 23.2 65.6
      vertex 1.6 31.6 1.6
      vertex 1.6 43.2 65.6
    endloop
  endfacet
  facet normal 1 0 0
    outer loop
      vertex 1.6 31.6 1.6
      vertex 1.6 23.2 65.6
      vertex 1.6 23.2 1.6
    endloop
  endfacet
  facet normal 1 0 0
    outer loop
      vertex 1.6 43.2 0
      vertex 1.6 31.6 1.6
      vertex 1.6 31.6 0
    endloop
  endfacet
  facet normal -1 0 0
    outer loop
      vertex 28.6 31.6 1.6
      vertex 28.6 43.2 0
      vertex 28.6 31.6 0
    endloop
  endfacet
  facet normal -1 0 0
    outer loop
      vertex 28.6 43.2 0
      vertex 28.6 31.6 1.6
      vertex 28.6 43.2 65.6
    endloop
  endfacet
  facet normal -1 0 0
    outer loop
      vertex 28.6 23.2 65.6
      vertex 28.6 31.6 1.6
      vertex 28.6 23.2 1.6
    endloop
  endfacet
  facet normal -1 0 0
    outer loop
      vertex 28.6 31.6 1.6
      vertex 28.6 23.2 65.6
      vertex 28.6 43.2 65.6
    endloop
  endfacet
  facet normal 0 -1 0
    outer loop
      vertex 1.6 43.2 65.6
      vertex 6.6 43.2 6.6
      vertex 6.6 43.2 65.6
    endloop
  endfacet
  facet normal 0 -1 -0
    outer loop
      vertex 6.6 43.2 6.6
      vertex 1.6 43.2 0
      vertex 23.6 43.2 6.6
    endloop
  endfacet
  facet normal 0 -1 0
    outer loop
      vertex 1.6 43.2 0
      vertex 6.6 43.2 6.6
      vertex 1.6 43.2 65.6
    endloop
  endfacet
  facet normal 0 -1 0
    outer loop
      vertex 23.6 43.2 6.6
      vertex 28.6 43.2 65.6
      vertex 23.6 43.2 65.6
    endloop
  endfacet
  facet normal 0 -1 0
    outer loop
      vertex 23.6 43.2 6.6
      vertex 28.6 43.2 0
      vertex 28.6 43.2 65.6
    endloop
  endfacet
  facet normal 0 -1 0
    outer loop
      vertex 28.6 43.2 0
      vertex 23.6 43.2 6.6
      vertex 1.6 43.2 0
    endloop
  endfacet
  facet normal -0 0 1
    outer loop
      vertex 1.6 31.6 1.6
      vertex 28.6 23.2 1.6
      vertex 28.6 31.6 1.6
    endloop
  endfacet
  facet normal 0 0 1
    outer loop
      vertex 28.6 23.2 1.6
      vertex 1.6 31.6 1.6
      vertex 1.6 23.2 1.6
    endloop
  endfacet
  facet normal 0 1 -0
    outer loop
      vertex 28.6 31.6 0
      vertex 1.6 31.6 1.6
      vertex 28.6 31.6 1.6
    endloop
  endfacet
  facet normal 0 1 0
    outer loop
      vertex 1.6 31.6 1.6
      vertex 28.6 31.6 0
      vertex 1.6 31.6 0
    endloop
  endfacet
  facet normal 1 -0 0
    outer loop
      vertex 6.6 43.2 65.6
      vertex 6.6 44.8 6.6
      vertex 6.6 44.8 65.6
    endloop
  endfacet
  facet normal 1 0 0
    outer loop
      vertex 6.6 44.8 6.6
      vertex 6.6 43.2 65.6
      vertex 6.6 43.2 6.6
    endloop
  endfacet
  facet normal -1 0 0
    outer loop
      vertex 23.6 43.2 6.6
      vertex 23.6 44.8 65.6
      vertex 23.6 44.8 6.6
    endloop
  endfacet
  facet normal -1 -0 0
    outer loop
      vertex 23.6 44.8 65.6
      vertex 23.6 43.2 6.6
      vertex 23.6 43.2 65.6
    endloop
  endfacet
  facet normal -0 0 1
    outer loop
      vertex 6.6 44.8 6.6
      vertex 23.6 43.2 6.6
      vertex 23.6 44.8 6.6
    endloop
  endfacet
  facet normal 0 0 1
    outer loop
      vertex 23.6 43.2 6.6
      vertex 6.6 44.8 6.6
      vertex 6.6 43.2 6.6
    endloop
  endfacet
  facet normal 0 1 0
    outer loop
      vertex 28.6 66.4 65.6
      vertex 23.6 66.4 6.6
      vertex 23.6 66.4 65.6
    endloop
  endfacet
  facet normal 0 1 0
    outer loop
      vertex 23.6 66.4 6.6
      vertex 28.6 66.4 1.6
      vertex 6.6 66.4 6.6
    endloop
  endfacet
  facet normal 0 1 -0
    outer loop
      vertex 28.6 66.4 1.6
      vertex 23.6 66.4 6.6
      vertex 28.6 66.4 65.6
    endloop
  endfacet
  facet normal 0 1 -0
    outer loop
      vertex 6.6 66.4 6.6
      vertex 1.6 66.4 65.6
      vertex 6.6 66.4 65.6
    endloop
  endfacet
  facet normal 0 1 0
    outer loop
      vertex 6.6 66.4 6.6
      vertex 1.6 66.4 1.6
      vertex 1.6 66.4 65.6
    endloop
  endfacet
  facet normal 0 1 0
    outer loop
      vertex 1.6 66.4 1.6
      vertex 6.6 66.4 6.6
      vertex 28.6 66.4 1.6
    endloop
  endfacet
  facet normal 1 0 0
    outer loop
      vertex 1.6 64.8 65.6
      vertex 1.6 53.2 1.6
      vertex 1.6 64.8 0
    endloop
  endfacet
  facet normal 1 -0 0
    outer loop
      vertex 1.6 44.8 65.6
      vertex 1.6 53.2 1.6
      vertex 1.6 64.8 65.6
    endloop
  endfacet
  facet normal 1 0 0
    outer loop
      vertex 1.6 53.2 1.6
      vertex 1.6 44.8 65.6
      vertex 1.6 44.8 1.6
    endloop
  endfacet
  facet normal 1 0 0
    outer loop
      vertex 1.6 64.8 0
      vertex 1.6 53.2 1.6
      vertex 1.6 53.2 0
    endloop
  endfacet
  facet normal -1 0 0
    outer loop
      vertex 28.6 53.2 1.6
      vertex 28.6 64.8 0
      vertex 28.6 53.2 0
    endloop
  endfacet
  facet normal -1 0 0
    outer loop
      vertex 28.6 64.8 0
      vertex 28.6 53.2 1.6
      vertex 28.6 64.8 65.6
    endloop
  endfacet
  facet normal -1 0 0
    outer loop
      vertex 28.6 44.8 65.6
      vertex 28.6 53.2 1.6
      vertex 28.6 44.8 1.6
    endloop
  endfacet
  facet normal -1 0 0
    outer loop
      vertex 28.6 53.2 1.6
      vertex 28.6 44.8 65.6
      vertex 28.6 64.8 65.6
    endloop
  endfacet
  facet normal 0 -1 0
    outer loop
      vertex 1.6 64.8 65.6
      vertex 6.6 64.8 6.6
      vertex 6.6 64.8 65.6
    endloop
  endfacet
  facet normal 0 -1 -0
    outer loop
      vertex 6.6 64.8 6.6
      vertex 1.6 64.8 0
      vertex 23.6 64.8 6.6
    endloop
  endfacet
  facet normal 0 -1 0
    outer loop
      vertex 1.6 64.8 0
      vertex 6.6 64.8 6.6
      vertex 1.6 64.8 65.6
    endloop
  endfacet
  facet normal 0 -1 0
    outer loop
      vertex 23.6 64.8 6.6
      vertex 28.6 64.8 65.6
      vertex 23.6 64.8 65.6
    endloop
  endfacet
  facet normal 0 -1 0
    outer loop
      vertex 23.6 64.8 6.6
      vertex 28.6 64.8 0
      vertex 28.6 64.8 65.6
    endloop
  endfacet
  facet normal 0 -1 0
    outer loop
      vertex 28.6 64.8 0
      vertex 23.6 64.8 6.6
      vertex 1.6 64.8 0
    endloop
  endfacet
  facet normal -0 0 1
    outer loop
      vertex 1.6 53.2 1.6
      vertex 28.6 44.8 1.6
      vertex 28.6 53.2 1.6
    endloop
  endfacet
  facet normal 0 0 1
    outer loop
      vertex 28.6 44.8 1.6
      vertex 1.6 53.2 1.6
      vertex 1.6 44.8 1.6
    endloop
  endfacet
  facet normal 0 1 -0
    outer loop
      vertex 28.6 53.2 0
      vertex 1.6 53.2 1.6
      vertex 28.6 53.2 1.6
    endloop
  endfacet
  facet normal 0 1 0
    outer loop
      vertex 1.6 53.2 1.6
      vertex 28.6 53.2 0
      vertex 1.6 53.2 0
    endloop
  endfacet
  facet normal 1 -0 0
    outer loop
      vertex 6.6 64.8 65.6
      vertex 6.6 66.4 6.6
      vertex 6.6 66.4 65.6
    endloop
  endfacet
  facet normal 1 0 0
    outer loop
      vertex 6.6 66.4 6.6
      vertex 6.6 64.8 65.6
      vertex 6.6 64.8 6.6
    endloop
  endfacet
  facet normal -1 0 0
    outer loop
      vertex 23.6 64.8 6.6
      vertex 23.6 66.4 65.6
      vertex 23.6 66.4 6.6
    endloop
  endfacet
  facet normal -1 -0 0
    outer loop
      vertex 23.6 66.4 65.6
      vertex 23.6 64.8 6.6
      vertex 23.6 64.8 65.6
    endloop
  endfacet
  facet normal -0 0 1
    outer loop
      vertex 6.6 66.4 6.6
      vertex 23.6 64.8 6.6
      vertex 23.6 66.4 6.6
    endloop
  endfacet
  facet normal 0 0 1
    outer loop
      vertex 23.6 64.8 6.6
      vertex 6.6 66.4 6.6
      vertex 6.6 64.8 6.6
    endloop
  endfacet
  facet normal 0 1 0
    outer loop
      vertex 28.6 88 65.6
      vertex 23.6 88 6.6
      vertex 23.6 88 65.6
    endloop
  endfacet
  facet normal 0 1 0
    outer loop
      vertex 23.6 88 6.6
      vertex 28.6 88 1.6
      vertex 6.6 88 6.6
    endloop
  endfacet
  facet normal 0 1 -0
    outer loop
      vertex 28.6 88 1.6
      vertex 23.6 88 6.6
      vertex 28.6 88 65.6
    endloop
  endfacet
  facet normal 0 1 -0
    outer loop
      vertex 6.6 88 6.6
      vertex 1.6 88 65.6
      vertex 6.6 88 65.6
    endloop
  endfacet
  facet normal 0 1 0
    outer loop
      vertex 6.6 88 6.6
      vertex 1.6 88 1.6
      vertex 1.6 88 65.6
    endloop
  endfacet
  facet normal 0 1 0
    outer loop
      vertex 1.6 88 1.6
      vertex 6.6 88 6.6
      vertex 28.6 88 1.6
    endloop
  endfacet
  facet normal 1 0 0
    outer loop
      vertex 1.6 86.4 65.6
      vertex 1.6 74.8 1.6
      vertex 1.6 86.4 0
    endloop
  endfacet
  facet normal 1 -0 0
    outer loop
      vertex 1.6 66.4 65.6
      vertex 1.6 74.8 1.6
      vertex 1.6 86.4 65.6
    endloop
  endfacet
  facet normal 1 0 0
    outer loop
      vertex 1.6 74.8 1.6
      vertex 1.6 66.4 65.6
      vertex 1.6 66.4 1.6
    endloop
  endfacet
  facet normal 1 0 0
    outer loop
      vertex 1.6 86.4 0
      vertex 1.6 74.8 1.6
      vertex 1.6 74.8 0
    endloop
  endfacet
  facet normal -1 0 0
    outer loop
      vertex 28.6 74.8 1.6
      vertex 28.6 86.4 0
      vertex 28.6 74.8 0
    endloop
  endfacet
  facet normal -1 0 0
    outer loop
      vertex 28.6 86.4 0
      vertex 28.6 74.8 1.6
      vertex 28.6 86.4 65.6
    endloop
  endfacet
  facet normal -1 0 0
    outer loop
      vertex 28.6 66.4 65.6
      vertex 28.6 74.8 1.6
      vertex 28.6 66.4 1.6
    endloop
  endfacet
  facet normal -1 0 0
    outer loop
      vertex 28.6 74.8 1.6
      vertex 28.6 66.4 65.6
      vertex 28.6 86.4 65.6
    endloop
  endfacet
  facet normal 0 -1 0
    outer loop
      vertex 1.6 86.4 65.6
      vertex 6.6 86.4 6.6
      vertex 6.6 86.4 65.6
    endloop
  endfacet
  facet normal 0 -1 -0
    outer loop
      vertex 6.6 86.4 6.6
      vertex 1.6 86.4 0
      vertex 23.6 86.4 6.6
    endloop
  endfacet
  facet normal 0 -1 0
    outer loop
      vertex 1.6 86.4 0
      vertex 6.6 86.4 6.6
      vertex 1.6 86.4 65.6
    endloop
  endfacet
  facet normal 0 -1 0
    outer loop
      vertex 23.6 86.4 6.6
      vertex 28.6 86.4 65.6
      vertex 23.6 86.4 65.6
    endloop
  endfacet
  facet normal 0 -1 0
    outer loop
      vertex 23.6 86.4 6.6
      vertex 28.6 86.4 0
      vertex 28.6 86.4 65.6
    endloop
  endfacet
  facet normal 0 -1 0
    outer loop
      vertex 28.6 86.4 0
      vertex 23.6 86.4 6.6
      vertex 1.6 86.4 0
    endloop
  endfacet
  facet normal -0 0 1
    outer loop
      vertex 1.6 74.8 1.6
      vertex 28.6 66.4 1.6
      vertex 28.6 74.8 1.6
    endloop
  endfacet
  facet normal 0 0 1
    outer loop
      vertex 28.6 66.4 1.6
      vertex 1.6 74.8 1.6
      vertex 1.6 66.4 1.6
    endloop
  endfacet
  facet normal 0 1 -0
    outer loop
      vertex 28.6 74.8 0
      vertex 1.6 74.8 1.6
      vertex 28.6 74.8 1.6
    endloop
  endfacet
  facet normal 0 1 0
    outer loop
      vertex 1.6 74.8 1.6
      vertex 28.6 74.8 0
      vertex 1.6 74.8 0
    endloop
  endfacet
  facet normal 1 -0 0
    outer loop
      vertex 6.6 86.4 65.6
      vertex 6.6 88 6.6
      vertex 6.6 88 65.6
    endloop
  endfacet
  facet normal 1 0 0
    outer loop
      vertex 6.6 88 6.6
      vertex 6.6 86.4 65.6
      vertex 6.6 86.4 6.6
    endloop
  endfacet
  facet normal -1 0 0
    outer loop
      vertex 23.6 86.4 6.6
      vertex 23.6 88 65.6
      vertex 23.6 88 6.6
    endloop
  endfacet
  facet normal -1 -0 0
    outer loop
      vertex 23.6 88 65.6
      vertex 23.6 86.4 6.6
      vertex 23.6 86.4 65.6
    endloop
  endfacet
  facet normal -0 0 1
    outer loop
      vertex 6.6 88 6.6
      vertex 23.6 86.4 6.6
      vertex 23.6 88 6.6
    endloop
  endfacet
  facet normal 0 0 1
    outer loop
      vertex 23.6 86.4 6.6
      vertex 6.6 88 6.6
      vertex 6.6 86.4 6.6
    endloop
  endfacet
  facet normal 0 1 -0
    outer loop
      vertex 30.2 109.6 0
      vertex 0 109.6 65.6
      vertex 30.2 109.6 65.6
    endloop
  endfacet
  facet normal 0 1 0
    outer loop
      vertex 0 109.6 65.6
      vertex 30.2 109.6 0
      vertex 0 109.6 0
    endloop
  endfacet
  facet normal 1 0 0
    outer loop
      vertex 1.6 108 65.6
      vertex 1.6 96.4 1.6
      vertex 1.6 108 0
    endloop
  endfacet
  facet normal 1 -0 0
    outer loop
      vertex 1.6 88 65.6
      vertex 1.6 96.4 1.6
      vertex 1.6 108 65.6
    endloop
  endfacet
  facet normal 1 0 0
    outer loop
      vertex 1.6 96.4 1.6
      vertex 1.6 88 65.6
      vertex 1.6 88 1.6
    endloop
  endfacet
  facet normal 1 0 0
    outer loop
      vertex 1.6 108 0
      vertex 1.6 96.4 1.6
      vertex 1.6 96.4 0
    endloop
  endfacet
  facet normal -1 0 0
    outer loop
      vertex 28.6 96.4 1.6
      vertex 28.6 108 0
      vertex 28.6 96.4 0
    endloop
  endfacet
  facet normal -1 0 0
    outer loop
      vertex 28.6 108 0
      vertex 28.6 96.4 1.6
      vertex 28.6 108 65.6
    endloop
  endfacet
  facet normal -1 0 0
    outer loop
      vertex 28.6 88 65.6
      vertex 28.6 96.4 1.6
      vertex 28.6 88 1.6
    endloop
  endfacet
  facet normal -1 0 0
    outer loop
      vertex 28.6 96.4 1.6
      vertex 28.6 88 65.6
      vertex 28.6 108 65.6
    endloop
  endfacet
  facet normal -0 0 1
    outer loop
      vertex 1.6 96.4 1.6
      vertex 28.6 88 1.6
      vertex 28.6 96.4 1.6
    endloop
  endfacet
  facet normal 0 0 1
    outer loop
      vertex 28.6 88 1.6
      vertex 1.6 96.4 1.6
      vertex 1.6 88 1.6
    endloop
  endfacet
  facet normal 0 -1 0
    outer loop
      vertex 1.6 108 0
      vertex 28.6 108 65.6
      vertex 1.6 108 65.6
    endloop
  endfacet
  facet normal 0 -1 -0
    outer loop
      vertex 28.6 108 65.6
      vertex 1.6 108 0
      vertex 28.6 108 0
    endloop
  endfacet
  facet normal 0 1 -0
    outer loop
      vertex 28.6 96.4 0
      vertex 1.6 96.4 1.6
      vertex 28.6 96.4 1.6
    endloop
  endfacet
  facet normal 0 1 0
    outer loop
      vertex 1.6 96.4 1.6
      vertex 28.6 96.4 0
      vertex 1.6 96.4 0
    endloop
  endfacet
endsolid OpenSCAD_Model
